<?xml version="1.0" encoding="utf-8"?>
<!-- Generator: Adobe Illustrator 16.0.2, SVG Export Plug-In . SVG Version: 6.00 Build 0)  -->
<!DOCTYPE svg PUBLIC "-//W3C//DTD SVG 1.1//EN" "http://www.w3.org/Graphics/SVG/1.1/DTD/svg11.dtd">
<svg version="1.1" id="Layer_1" xmlns="http://www.w3.org/2000/svg" xmlns:xlink="http://www.w3.org/1999/xlink" x="0px" y="0px"
	 width="612px" height="792px" viewBox="0 0 612 792" enable-background="new 0 0 612 792" xml:space="preserve">
<g>
	<g>
		<g enable-background="new    ">
			<g enable-background="new    ">
				<defs>
					<path id="SVGID_1_" enable-background="new    " d="M494.492,364.527l6.934,30.091c-14.234-18.494-36.662-28.292-64.893-28.349
						l-6.934-30.091C457.83,336.236,480.258,346.033,494.492,364.527z"/>
				</defs>
				<clipPath id="SVGID_2_">
					<use xlink:href="#SVGID_1_"  overflow="visible"/>
				</clipPath>
				<g clip-path="url(#SVGID_2_)" enable-background="new    ">
					<path d="M494.492,364.527l6.934,30.091c-5.14-6.678-11.347-12.221-18.51-16.582l-6.934-30.091
						C483.146,352.306,489.353,357.85,494.492,364.527"/>
					<path d="M475.982,347.945l6.934,30.091c-1.756-1.069-3.569-2.067-5.439-2.994l-6.934-30.091
						C472.412,345.878,474.226,346.876,475.982,347.945"/>
					<path d="M470.543,344.952l6.934,30.091c-1.43-0.708-2.892-1.375-4.386-1.999l-6.934-30.091
						C467.65,343.577,469.113,344.244,470.543,344.952"/>
					<path d="M466.157,342.953l6.934,30.091c-1.304-0.544-2.633-1.057-3.984-1.537l-6.935-30.09
						C463.524,341.896,464.853,342.409,466.157,342.953"/>
					<path d="M462.172,341.417l6.935,30.09c-1.229-0.436-2.477-0.845-3.743-1.227l-6.935-30.091
						C459.696,340.571,460.944,340.98,462.172,341.417"/>
					<path d="M458.429,340.189l6.935,30.091c-1.185-0.357-2.385-0.691-3.603-1l-6.935-30.091
						C456.044,339.498,457.245,339.832,458.429,340.189"/>
					<path d="M454.826,339.188l6.935,30.091c-1.162-0.296-2.34-0.57-3.531-0.823l-6.935-30.091
						C452.487,338.618,453.664,338.893,454.826,339.188"/>
					<path d="M451.295,338.365l6.935,30.091c-1.156-0.245-2.326-0.47-3.51-0.674l-6.935-30.091
						C448.969,337.896,450.139,338.12,451.295,338.365"/>
					<path d="M447.785,337.691l6.935,30.091c-1.163-0.201-2.34-0.381-3.528-0.542l-6.935-30.09
						C445.446,337.31,446.622,337.491,447.785,337.691"/>
					<path d="M444.257,337.149l6.935,30.09c-1.18-0.16-2.371-0.299-3.576-0.42l-6.934-30.091
						C441.886,336.85,443.078,336.99,444.257,337.149"/>
					<path d="M440.682,336.729l6.934,30.091c-1.204-0.12-2.421-0.221-3.649-0.302l-6.935-30.09
						C438.261,336.508,439.478,336.609,440.682,336.729"/>
					<path d="M437.031,336.427l6.935,30.09c-1.242-0.082-2.496-0.144-3.763-0.185l-6.935-30.091
						C434.535,336.284,435.79,336.345,437.031,336.427"/>
					<path d="M433.269,336.242l6.935,30.091c-1.212-0.04-2.436-0.061-3.67-0.063l-6.934-30.091
						C430.834,336.181,432.057,336.202,433.269,336.242"/>
				</g>
			</g>
			<g>
				<polygon points="495.042,364.455 501.976,394.546 501.885,394.826 494.951,364.735 				"/>
			</g>
			<g enable-background="new    ">
				<defs>
					<path id="SVGID_3_" enable-background="new    " d="M338.672,459.947c-2.312-10.03-4.623-20.06-6.935-30.091
						c-8.228-35.706,21.206-73.613,66.643-85.189c9.232-2.35,17.183-3.364,26.545-3.385l6.935,30.091
						c-9.362,0.021-17.313,1.035-26.545,3.385C359.877,386.334,330.443,424.242,338.672,459.947z"/>
				</defs>
				<clipPath id="SVGID_4_">
					<use xlink:href="#SVGID_3_"  overflow="visible"/>
				</clipPath>
				<g clip-path="url(#SVGID_4_)" enable-background="new    ">
					<path d="M424.925,341.282l6.935,30.091c-1.237,0.003-2.45,0.023-3.645,0.061l-6.935-30.091
						C422.475,341.305,423.688,341.285,424.925,341.282"/>
					<path d="M421.28,341.343l6.935,30.091c-1.179,0.038-2.34,0.093-3.489,0.167l-6.934-30.091
						C418.94,341.437,420.102,341.381,421.28,341.343"/>
					<path d="M417.792,341.511l6.934,30.091c-1.087,0.07-2.164,0.156-3.235,0.26l-6.934-30.091
						C415.628,341.667,416.704,341.581,417.792,341.511"/>
					<path d="M414.557,341.771l6.934,30.091c-1.053,0.102-2.102,0.22-3.148,0.356l-6.935-30.09
						C412.455,341.991,413.503,341.873,414.557,341.771"/>
					<path d="M411.407,342.127l6.935,30.09c-1.069,0.139-2.138,0.295-3.211,0.47l-6.934-30.091
						C409.27,342.422,410.338,342.265,411.407,342.127"/>
					<path d="M408.197,342.597l6.934,30.091c-1.14,0.186-2.285,0.393-3.442,0.622l-6.934-30.091
						C405.911,342.99,407.057,342.783,408.197,342.597"/>
					<path d="M404.755,343.219l6.934,30.091c-1.294,0.256-2.602,0.54-3.933,0.851l-6.934-30.09
						C402.152,343.758,403.461,343.475,404.755,343.219"/>
					<path d="M400.822,344.07l6.934,30.09c-0.805,0.189-1.618,0.388-2.441,0.598c-0.654,0.167-1.305,0.338-1.951,0.516
						l-6.935-30.091c0.647-0.177,1.298-0.349,1.951-0.516C399.203,344.458,400.017,344.259,400.822,344.07"/>
					<path d="M396.429,345.184l6.935,30.09c-1.4,0.384-2.784,0.792-4.152,1.226l-6.934-30.091
						C393.645,345.976,395.028,345.567,396.429,345.184"/>
					<path d="M392.277,346.409l6.934,30.091c-1.611,0.51-3.199,1.054-4.764,1.63l-6.934-30.09
						C389.077,347.463,390.666,346.919,392.277,346.409"/>
					<path d="M387.514,348.04l6.934,30.09c-1.91,0.704-3.784,1.455-5.621,2.252l-6.934-30.09
						C383.729,349.494,385.604,348.743,387.514,348.04"/>
					<path d="M381.893,350.292l6.934,30.091c-2.896,1.257-5.7,2.627-8.402,4.101l-6.935-30.091
						C376.191,352.919,378.995,351.548,381.893,350.292"/>
					<path fill="#121212" d="M373.489,354.393l6.935,30.091c-4.738,2.583-9.166,5.484-13.241,8.648l-6.935-30.09
						C364.324,359.877,368.751,356.976,373.489,354.393"/>
					<path d="M360.248,363.042l6.935,30.09c-2.972,2.308-5.757,4.755-8.338,7.321l-6.935-30.091
						C354.492,367.796,357.276,365.349,360.248,363.042"/>
					<path d="M351.91,370.362l6.935,30.091c-1.603,1.593-3.126,3.231-4.568,4.911l-6.934-30.091
						C348.784,373.594,350.309,371.955,351.91,370.362"/>
					<path d="M347.343,375.273l6.934,30.091c-1.179,1.373-2.304,2.773-3.37,4.199l-6.935-30.091
						C345.039,378.047,346.163,376.646,347.343,375.273"/>
					<path d="M343.972,379.473l6.935,30.091c-0.913,1.219-1.784,2.455-2.612,3.708l-6.934-30.091
						C342.188,381.928,343.06,380.691,343.972,379.473"/>
					<path d="M341.36,383.18l6.934,30.091c-0.741,1.121-1.448,2.256-2.119,3.402l-6.935-30.09
						C339.912,385.437,340.619,384.302,341.36,383.18"/>
					<path d="M339.24,386.583l6.935,30.09c-0.633,1.08-1.233,2.17-1.803,3.27l-6.934-30.09
						C338.007,388.753,338.608,387.663,339.24,386.583"/>
					<path d="M337.438,389.853l6.934,30.09c-0.529,1.024-1.031,2.057-1.505,3.096l-6.935-30.09
						C336.406,391.909,336.908,390.877,337.438,389.853"/>
					<path d="M335.933,392.949l6.935,30.09c-0.448,0.983-0.87,1.974-1.267,2.969l-6.934-30.091
						C335.063,394.922,335.485,393.932,335.933,392.949"/>
					<path d="M334.667,395.917l6.934,30.09c-0.387,0.972-0.748,1.949-1.085,2.932l-6.934-30.091
						C333.918,397.866,334.28,396.889,334.667,395.917"/>
					<path d="M333.582,398.849l6.934,30.091c-0.32,0.935-0.617,1.874-0.892,2.816l-6.934-30.091
						C332.964,400.723,333.262,399.783,333.582,398.849"/>
					<path d="M332.69,401.665l6.934,30.091c-0.272,0.938-0.521,1.879-0.747,2.824l-6.935-30.091
						C332.169,403.545,332.418,402.603,332.69,401.665"/>
					<path d="M331.942,404.489l6.935,30.091c-0.22,0.918-0.416,1.838-0.591,2.762l-6.935-30.091
						C331.526,406.327,331.724,405.407,331.942,404.489"/>
					<path d="M331.352,407.251l6.935,30.091c-0.175,0.923-0.327,1.848-0.456,2.775l-6.934-30.091
						C331.025,409.099,331.178,408.174,331.352,407.251"/>
					<path d="M330.896,410.026l6.934,30.091c-0.128,0.923-0.233,1.848-0.316,2.773l-6.934-30.09
						C330.662,411.874,330.768,410.949,330.896,410.026"/>
					<path d="M330.58,412.801l6.934,30.09c-0.083,0.93-0.143,1.859-0.179,2.791l-6.934-30.091
						C330.438,414.659,330.497,413.729,330.58,412.801"/>
					<path d="M330.401,415.591l6.934,30.091c-0.037,0.949-0.049,1.898-0.036,2.85l-6.935-30.091
						C330.352,417.489,330.364,416.54,330.401,415.591"/>
					<path d="M330.364,418.44l6.935,30.091c0.013,0.96,0.051,1.922,0.114,2.883l-6.935-30.091
						C330.415,420.362,330.377,419.4,330.364,418.44"/>
					<path d="M330.479,421.323l6.935,30.091c0.066,1.001,0.161,2.001,0.284,3.001l-6.935-30.091
						C330.64,423.324,330.545,422.324,330.479,421.323"/>
					<path d="M330.763,424.324l6.935,30.091c0.127,1.035,0.284,2.068,0.473,3.102l-6.935-30.091
						C331.047,426.393,330.89,425.359,330.763,424.324"/>
					<path d="M331.235,427.426l6.935,30.091c0.148,0.811,0.315,1.621,0.502,2.431l-6.935-30.091
						C331.551,429.047,331.384,428.236,331.235,427.426"/>
				</g>
			</g>
			<g>
				<polygon fill="#C4797C" points="424.925,341.282 431.859,371.373 422.828,440.39 415.895,410.299 				"/>
			</g>
			<g>
				<polygon points="425.225,340.887 432.159,370.978 423.287,440.677 416.353,410.586 				"/>
			</g>
			<g>
				<polygon points="429.6,336.179 436.533,366.27 427.535,435.034 420.602,404.943 				"/>
			</g>
			<g>
				<polygon fill="#F5D3D3" points="494.492,364.527 501.426,394.618 427.535,435.034 420.602,404.943 				"/>
			</g>
			<g>
				<path d="M495.042,364.455l-0.091,0.28l-74.939,40.991l9.152-69.943h0.248C457.996,335.783,480.691,345.695,495.042,364.455z
					 M420.602,404.943l73.891-40.416c-14.234-18.494-36.662-28.291-64.893-28.349L420.602,404.943"/>
			</g>
			<g>
				<path fill="#F5D3D4" d="M429.6,336.179c28.23,0.058,50.658,9.854,64.893,28.349l-73.891,40.416L429.6,336.179z"/>
			</g>
			<g>
				<polygon points="494.951,364.735 501.885,394.826 426.945,435.817 420.012,405.727 				"/>
			</g>
			<g enable-background="new    ">
				<defs>
					<path id="SVGID_5_" enable-background="new    " d="M501.785,391.92c2.312,10.03,4.623,20.06,6.935,30.091
						c-1.691-7.34-4.971-14.438-9.94-20.981l-6.935-30.091C496.815,377.481,500.094,384.581,501.785,391.92z"/>
				</defs>
				<clipPath id="SVGID_6_">
					<use xlink:href="#SVGID_5_"  overflow="visible"/>
				</clipPath>
				<g clip-path="url(#SVGID_6_)" enable-background="new    ">
					<path d="M501.785,391.92l6.935,30.091c-1.691-7.34-4.971-14.438-9.94-20.981l-6.935-30.091
						C496.815,377.481,500.094,384.581,501.785,391.92"/>
				</g>
			</g>
			<g>
				<polygon points="491.845,370.938 498.779,401.029 424.439,441.697 417.505,411.606 				"/>
			</g>
			<g enable-background="new    ">
				<defs>
					<path id="SVGID_7_" enable-background="new    " d="M339.108,461.708c-0.155-0.586-0.302-1.173-0.437-1.76l-6.934-30.091
						c0.135,0.588,0.28,1.174,0.436,1.76C334.255,440.645,337.028,452.681,339.108,461.708z"/>
				</defs>
				<clipPath id="SVGID_8_">
					<use xlink:href="#SVGID_7_"  overflow="visible"/>
				</clipPath>
				<g clip-path="url(#SVGID_8_)" enable-background="new    ">
					<path fill="#945A5D" d="M332.174,431.617l6.935,30.091c-0.156-0.587-0.302-1.173-0.437-1.761l-6.935-30.091
						C331.873,430.444,332.019,431.031,332.174,431.617"/>
				</g>
			</g>
			<g>
				<polygon fill="#DF8A8C" points="415.895,410.299 422.828,440.39 339.108,461.708 332.174,431.617 				"/>
			</g>
			<g>
				<path d="M425.225,340.887l-8.872,69.699l-84.564,21.542c-9.896-36.672,19.959-75.989,66.482-87.841
					C407.641,341.9,415.697,340.887,425.225,340.887z M415.895,410.299l9.03-69.017c-9.362,0.021-17.313,1.035-26.545,3.385
					c-46.184,11.766-75.835,50.738-66.206,86.95L415.895,410.299"/>
			</g>
			<g>
				<path fill="#EF9496" d="M424.925,341.282l-9.03,69.017l-83.721,21.318c-9.629-36.212,20.022-75.184,66.206-86.95
					C407.612,342.317,415.563,341.304,424.925,341.282z"/>
			</g>
			<g>
				<polygon points="416.353,410.586 423.287,440.677 338.723,462.219 331.788,432.128 				"/>
			</g>
			<g enable-background="new    ">
				<defs>
					<path id="SVGID_9_" enable-background="new    " d="M338.226,460.232c-0.104-0.451-0.243-1.054-0.347-1.505
						c-2.196-9.529-4.392-19.057-6.588-28.586c0.153,0.663,0.318,1.325,0.497,1.986l6.935,30.091
						C338.544,461.557,338.378,460.895,338.226,460.232z"/>
				</defs>
				<clipPath id="SVGID_10_">
					<use xlink:href="#SVGID_9_"  overflow="visible"/>
				</clipPath>
				<g clip-path="url(#SVGID_10_)" enable-background="new    ">
					<path d="M331.788,432.128l6.935,30.091c-0.179-0.662-0.345-1.324-0.497-1.986l-6.935-30.091
						C331.444,430.805,331.609,431.467,331.788,432.128"/>
				</g>
			</g>
			<g>
				<polygon points="417.505,411.606 424.439,441.697 340.498,463.074 333.563,432.983 				"/>
			</g>
			<g enable-background="new    ">
				<defs>
					<path id="SVGID_11_" enable-background="new    " d="M335.225,438.147c0.306,1.036,0.566,2.456,0.81,3.509
						c0.127,0.552,0.296,1.287,0.423,1.838c0.263,1.14,0.613,2.659,0.876,3.799c1.604,6.962,3.208,13.924,4.812,20.886
						c-2.307-10.013-4.614-20.023-6.921-30.036C335.224,438.145,335.225,438.146,335.225,438.147z"/>
				</defs>
				<clipPath id="SVGID_12_">
					<use xlink:href="#SVGID_11_"  overflow="visible"/>
				</clipPath>
				<g clip-path="url(#SVGID_12_)" enable-background="new    ">
					<path fill="#913233" d="M361.291,468.168l6.934,30.091c-7.175-4.362-13.355-9.778-18.188-16.095
						c-4.708-6.152-7.566-11.874-9.538-19.09l-6.934-30.091c1.972,7.216,4.83,12.938,9.537,19.09
						C347.936,458.39,354.115,463.806,361.291,468.168"/>
				</g>
			</g>
			<g enable-background="new    ">
				<defs>
					<path id="SVGID_13_" enable-background="new    " d="M336.208,440.575c0.139,0.442,0.243,1.054,0.348,1.506
						c0.624,2.711,1.249,5.421,1.874,8.133c1.299,5.64,2.599,11.278,3.897,16.918c-2.04-8.854-4.08-17.707-6.121-26.562l0,0
						C336.207,440.572,336.208,440.573,336.208,440.575z"/>
				</defs>
				<clipPath id="SVGID_14_">
					<use xlink:href="#SVGID_13_"  overflow="visible"/>
				</clipPath>
				<g clip-path="url(#SVGID_14_)" enable-background="new    ">
					<path fill="#913233" d="M361.291,468.168l6.934,30.091c-7.175-4.362-13.355-9.778-18.188-16.095
						c-4.708-6.152-7.566-11.874-9.538-19.09l-6.934-30.091c1.972,7.216,4.83,12.938,9.537,19.09
						C347.936,458.39,354.115,463.806,361.291,468.168"/>
				</g>
			</g>
			<g enable-background="new    ">
				<defs>
					<path id="SVGID_15_" enable-background="new    " d="M337.314,442.954C337.313,442.954,337.313,442.954,337.314,442.954
						c2.038,8.851,4.078,17.7,6.117,26.551c-2.041-8.855-4.081-17.71-6.122-26.565C337.312,442.944,337.313,442.949,337.314,442.954
						z"/>
				</defs>
				<clipPath id="SVGID_16_">
					<use xlink:href="#SVGID_15_"  overflow="visible"/>
				</clipPath>
				<g clip-path="url(#SVGID_16_)" enable-background="new    ">
					<path fill="#913233" d="M361.291,468.168l6.934,30.091c-7.175-4.362-13.355-9.778-18.188-16.095
						c-4.708-6.152-7.566-11.874-9.538-19.09l-6.934-30.091c1.972,7.216,4.83,12.938,9.537,19.09
						C347.936,458.39,354.115,463.806,361.291,468.168"/>
				</g>
			</g>
			<g enable-background="new    ">
				<defs>
					<path id="SVGID_17_" enable-background="new    " d="M341.282,465.719c-0.276-0.86-0.537-1.741-0.784-2.645
						c-0.369-1.731-0.426-1.998-6.934-30.091c0.245,0.9,0.505,1.776,0.78,2.634c2.302,9.986,4.603,19.973,6.904,29.959
						c-2.302-9.986-4.603-19.973-6.904-29.959c0.276,0.86,0.569,1.701,0.879,2.525c2.307,10.013,4.614,20.023,6.921,30.036
						c-1.304-5.661-2.608-11.321-3.912-16.982c-1.003-4.35-2.005-8.699-3.008-13.049c0.31,0.822,0.636,1.629,0.981,2.423
						c2.041,8.854,4.081,17.707,6.121,26.562c0.271,1.171,0.54,2.342,0.81,3.512c-2.31-10.023-4.619-20.046-6.929-30.068
						c1.039,2.385,2.254,4.662,3.693,6.933c2.306,10.006,4.612,20.012,6.918,30.018c-2.306-10.006-4.612-20.012-6.918-30.018
						c0.481,0.759,0.988,1.517,1.522,2.278c2.308,10.015,4.616,20.028,6.924,30.044c-2.308-10.016-4.616-20.029-6.924-30.044l0,0
						c0.531,0.757,1.088,1.516,1.675,2.282c2.3,9.984,4.601,19.968,6.901,29.952c-2.301-9.984-4.602-19.968-6.901-29.952
						c0.001,0.002,0.002,0.003,0.003,0.005c0.001,0.001,0.002,0.002,0.002,0.002c2.312,10.031,4.623,20.061,6.935,30.091l0,0
						c-0.001,0-0.001-0.001-0.002-0.002c-0.589-0.77-1.149-1.533-1.683-2.294c-2.308-10.016-4.616-20.031-6.924-30.047
						c2.308,10.016,4.616,20.031,6.924,30.047l0,0c-0.531-0.757-1.035-1.512-1.515-2.267c-2.306-10.008-4.611-20.014-6.918-30.021
						c2.307,10.008,4.612,20.014,6.918,30.021c-0.48-0.758-0.937-1.516-1.368-2.279c-2.309-10.017-4.617-20.032-6.925-30.05
						c2.308,10.017,4.615,20.031,6.923,30.047c-0.432-0.762-0.84-1.528-1.228-2.303c-2.309-10.022-4.618-20.043-6.928-30.064
						c0,0,0,0,0.001,0c-0.002-0.005-0.003-0.01-0.005-0.015c2.312,10.026,4.622,20.052,6.932,30.079
						C343.08,470.693,342.11,468.294,341.282,465.719c-2.303-9.993-4.604-19.985-6.907-29.979
						C336.678,445.733,338.979,455.726,341.282,465.719z"/>
				</defs>
				<clipPath id="SVGID_18_">
					<use xlink:href="#SVGID_17_"  overflow="visible"/>
				</clipPath>
				<g clip-path="url(#SVGID_18_)" enable-background="new    ">
					<path fill="#913233" d="M361.291,468.168l6.934,30.091c-7.175-4.362-13.355-9.778-18.188-16.095
						c-4.708-6.152-7.566-11.874-9.538-19.09l-6.934-30.091c1.972,7.216,4.83,12.938,9.537,19.09
						C347.936,458.39,354.115,463.806,361.291,468.168"/>
				</g>
			</g>
			<g enable-background="new    ">
				<defs>
					<path id="SVGID_19_" enable-background="new    " d="M355.648,488.516c-2.028-1.999-3.903-4.118-5.61-6.35
						c-2.312-10.03-4.623-20.06-6.935-30.091c11.955,15.622,32.149,25.735,55.264,28.02c-0.001,0-0.002,0-0.003,0.001
						c2.313,10.029,4.625,20.059,6.937,30.089c-2.312-10.03-4.623-20.059-6.934-30.089l0,0v-0.001
						c3.301,0.326,6.661,0.492,10.066,0.492c2.311,10.031,4.625,20.061,6.936,30.091c0,0-0.001,0-0.002,0
						C391.527,510.678,369.849,502.518,355.648,488.516c-2.312-10.029-4.622-20.058-6.934-30.087
						C351.026,468.458,353.337,478.486,355.648,488.516z M393.919,501.488l0.109,0.476l0.109,0.472l0.107,0.471l0.107,0.467
						l0.107,0.465l0.106,0.462l0.105,0.459l0.104,0.455l0.104,0.452l0.104,0.449l0.103,0.445l0.102,0.441l0.101,0.438l0.1,0.434
						l0.099,0.43l0.098,0.425l0.004,0.005v-0.001l-0.098-0.425l-0.1-0.43l-0.1-0.435l-0.101-0.438l-0.103-0.441l-0.103-0.446
						l-0.104-0.448l-0.104-0.453l-0.105-0.456l-0.105-0.459l-0.106-0.462l-0.107-0.465l-0.107-0.468l-0.108-0.47l-0.109-0.473
						L393.919,501.488l-0.331-1.437l-0.334-1.453l-0.338-1.466l-0.339-1.474l-0.341-1.479l-0.342-1.48l-0.34-1.479l-0.34-1.472
						l-0.337-1.462l-0.334-1.447l-0.33-1.432l-0.325-1.409l-0.319-1.386l-0.313-1.356l-0.305-1.324l-0.297-1.288l0.297,1.288
						l0.305,1.324l0.313,1.356l0.319,1.386l0.325,1.409l0.33,1.432l0.334,1.447l0.337,1.462l0.34,1.472l0.34,1.479l0.342,1.48
						l0.341,1.479l0.339,1.474l0.338,1.466l0.334,1.453L393.919,501.488 M379.394,476.275l0.151,0.655l0.156,0.679l0.16,0.698
						l0.165,0.716l0.168,0.729l0.171,0.738l0.171,0.746l0.173,0.748l0.173,0.749l0.172,0.745l0.17,0.739l0.168,0.729l0.165,0.715
						l0.16,0.698l0.157,0.679l0.15,0.655l-0.15-0.655l-0.157-0.679l-0.16-0.698l-0.165-0.715l-0.168-0.729l-0.17-0.739l-0.172-0.745
						l-0.173-0.749l-0.173-0.748l-0.171-0.746l-0.171-0.738l-0.168-0.729l-0.165-0.716l-0.16-0.698l-0.156-0.679L379.394,476.275
						 M370.676,473.027l0.137,0.595l0.142,0.616l0.146,0.634l0.149,0.649l0.152,0.661l0.154,0.671l0.156,0.676l0.156,0.68
						l0.157,0.68l0.155,0.677l0.155,0.67l0.152,0.661l0.149,0.649l0.146,0.634l0.143,0.616l0.137,0.594l-0.137-0.594l-0.143-0.616
						l-0.146-0.634l-0.149-0.649l-0.152-0.661l-0.155-0.67l-0.155-0.677l-0.157-0.68l-0.156-0.68l-0.156-0.676l-0.154-0.671
						l-0.152-0.661l-0.149-0.649l-0.146-0.634l-0.142-0.616L370.676,473.027 M362.597,468.946l0.154,0.668l0.159,0.693l0.164,0.713
						l0.168,0.73l0.171,0.744l0.174,0.754l0.176,0.761l0.176,0.765l0.176,0.765l0.176,0.762l0.174,0.754l0.171,0.744l0.169,0.73
						l0.164,0.714l0.159,0.692l0.154,0.669l-0.154-0.669l-0.159-0.692l-0.164-0.714l-0.169-0.73l-0.171-0.744l-0.174-0.754
						l-0.176-0.762l-0.176-0.765l-0.176-0.765l-0.176-0.761l-0.174-0.754l-0.171-0.744l-0.168-0.73l-0.164-0.713l-0.159-0.693
						L362.597,468.946 M355.245,464.065l0.21,0.911l0.218,0.943l0.224,0.971l0.229,0.995l0.233,1.013l0.236,1.027l0.238,1.036
						l0.24,1.041l0.239,1.041l0.238,1.036l0.237,1.027l0.233,1.014l0.229,0.994l0.224,0.972l0.218,0.943l0.21,0.91l-0.21-0.91
						l-0.218-0.943l-0.224-0.972l-0.229-0.994l-0.233-1.014l-0.237-1.027l-0.238-1.036l-0.239-1.041l-0.24-1.041l-0.238-1.036
						l-0.236-1.027l-0.233-1.013l-0.229-0.995l-0.224-0.971l-0.218-0.943L355.245,464.065"/>
				</defs>
				<clipPath id="SVGID_20_">
					<use xlink:href="#SVGID_19_"  overflow="visible"/>
				</clipPath>
				<g clip-path="url(#SVGID_20_)" enable-background="new    ">
					<path fill="#C3484A" d="M411.88,480.532l6.934,30.091c-1.147,0.036-2.296,0.055-3.446,0.055c-0.006,0-0.012,0-0.018,0
						l-6.935-30.091c0.006,0,0.013,0,0.019,0C409.583,480.587,410.731,480.568,411.88,480.532"/>
					<path fill="#BF4748" d="M408.415,480.587l6.935,30.091c-1.133,0-2.262-0.019-3.384-0.056l-6.935-30.091
						C406.154,480.568,407.282,480.587,408.415,480.587"/>
					<path fill="#BB4547" d="M405.031,480.531l6.935,30.091c-1.136-0.037-2.266-0.093-3.39-0.167l-6.935-30.091
						C402.766,480.438,403.896,480.494,405.031,480.531"/>
					<path fill="#B74345" d="M401.642,480.364l6.935,30.091c-1.142-0.075-2.276-0.17-3.404-0.282l-6.934-30.091
						C399.365,480.194,400.501,480.289,401.642,480.364"/>
					<path fill="#B34243" d="M398.238,480.082l6.934,30.091c-1.153-0.116-2.299-0.251-3.438-0.405l-6.934-30.091
						C395.938,479.831,397.084,479.966,398.238,480.082"/>
					<path fill="#AF4041" d="M394.801,479.677l6.934,30.091c-1.172-0.158-2.336-0.338-3.491-0.537l-6.934-30.091
						C392.464,479.339,393.628,479.519,394.801,479.677"/>
					<path fill="#AB3E40" d="M391.31,479.14l6.934,30.091c-1.198-0.207-2.387-0.436-3.564-0.685l-6.934-30.091
						C388.923,478.705,390.111,478.933,391.31,479.14"/>
					<path fill="#A73C3E" d="M387.745,478.455l6.934,30.091c-1.235-0.262-2.459-0.548-3.67-0.855l-6.935-30.091
						C385.285,477.908,386.51,478.193,387.745,478.455"/>
					<path fill="#A33B3C" d="M384.074,477.6l6.935,30.091c-1.288-0.328-2.563-0.683-3.82-1.062l-6.935-30.091
						C381.513,476.918,382.786,477.271,384.074,477.6"/>
					<path fill="#A0393A" d="M380.254,476.538l6.935,30.091c-1.363-0.411-2.707-0.852-4.032-1.322l-6.934-30.091
						C377.547,475.687,378.892,476.127,380.254,476.538"/>
					<path fill="#9C3738" d="M376.223,475.216l6.934,30.091c-1.469-0.521-2.912-1.078-4.331-1.67l-6.934-30.091
						C373.31,474.138,374.754,474.695,376.223,475.216"/>
					<path fill="#983536" d="M371.892,473.546l6.934,30.091c-1.634-0.683-3.233-1.411-4.795-2.186l-6.935-30.091
						C368.658,472.135,370.258,472.863,371.892,473.546"/>
					<path fill="#943435" d="M367.096,471.36l6.935,30.091c-1.998-0.991-3.936-2.056-5.806-3.192l-6.934-30.091
						C363.16,469.305,365.098,470.369,367.096,471.36"/>
					<path fill="#913233" d="M361.291,468.168l6.934,30.091c-7.175-4.362-13.355-9.778-18.188-16.095
						c-4.708-6.152-7.566-11.874-9.538-19.09l-6.934-30.091c1.972,7.216,4.83,12.938,9.537,19.09
						C347.936,458.39,354.115,463.806,361.291,468.168"/>
				</g>
			</g>
			<g enable-background="new    ">
				<defs>
					<path id="SVGID_21_" enable-background="new    " d="M410.104,487.828c-0.557-2.414-1.112-4.827-1.669-7.24
						c0-0.001-0.001-0.001-0.002-0.001c2.259,0,4.516-0.071,6.766-0.213c0.185,0.8,0.369,1.599,0.553,2.398
						c-0.184-0.8-0.368-1.599-0.553-2.398c15.751-0.993,31.191-5.438,45.022-12.998c32.224-17.629,47.846-48.197,41.563-75.457
						l6.935,30.091c6.282,27.26-9.34,57.828-41.563,75.457c-15.807,8.64-33.715,13.211-51.787,13.211
						C413.614,503.061,411.86,495.444,410.104,487.828z"/>
				</defs>
				<clipPath id="SVGID_22_">
					<use xlink:href="#SVGID_21_"  overflow="visible"/>
				</clipPath>
				<g clip-path="url(#SVGID_22_)" enable-background="new    ">
					<path fill="#A33B3C" d="M501.785,391.92l6.935,30.091c0.183,0.795,0.348,1.594,0.494,2.395l-6.935-30.091
						C502.134,393.514,501.969,392.715,501.785,391.92"/>
					<path fill="#A73C3E" d="M502.279,394.314l6.935,30.091c0.187,1.025,0.344,2.055,0.471,3.087l-6.935-30.091
						C502.623,396.369,502.467,395.34,502.279,394.314"/>
					<path fill="#AB3E40" d="M502.75,397.401l6.935,30.091c0.122,0.994,0.216,1.992,0.282,2.991l-6.935-30.091
						C502.966,399.394,502.872,398.396,502.75,397.401"/>
					<path fill="#AF4041" d="M503.032,400.393l6.935,30.091c0.064,0.966,0.103,1.933,0.115,2.901l-6.935-30.091
						C503.135,402.325,503.097,401.358,503.032,400.393"/>
					<path fill="#B34243" d="M503.147,403.294l6.935,30.091c0.013,0.958,0,1.916-0.037,2.875l-6.934-30.091
						C503.148,405.21,503.16,404.252,503.147,403.294"/>
					<path fill="#B74345" d="M503.111,406.169l6.934,30.091c-0.036,0.94-0.097,1.882-0.181,2.822l-6.935-30.091
						C503.014,408.051,503.074,407.109,503.111,406.169"/>
					<path fill="#BB4547" d="M502.93,408.991l6.935,30.091c-0.084,0.938-0.19,1.878-0.321,2.815l-6.935-30.091
						C502.739,410.869,502.847,409.93,502.93,408.991"/>
					<path fill="#BF4748" d="M502.608,411.807l6.935,30.091c-0.131,0.938-0.284,1.875-0.461,2.812l-6.935-30.091
						C502.324,413.682,502.479,412.745,502.608,411.807"/>
					<path fill="#C3484A" d="M502.147,414.618l6.935,30.091c-0.178,0.938-0.379,1.876-0.602,2.811l-6.935-30.09
						C501.77,416.494,501.97,415.557,502.147,414.618"/>
					<path fill="#C74A4C" d="M501.546,417.43l6.935,30.09c-0.229,0.953-0.479,1.903-0.755,2.852l-6.935-30.091
						C501.066,419.332,501.318,418.382,501.546,417.43"/>
					<path fill="#CB4C4D" d="M500.791,420.28l6.935,30.091c-0.278,0.959-0.581,1.915-0.908,2.868l-6.934-30.091
						C500.21,422.195,500.513,421.239,500.791,420.28"/>
					<path fill="#CF4D4F" d="M499.884,423.148l6.934,30.091c-0.337,0.982-0.699,1.961-1.086,2.936l-6.935-30.091
						C499.185,425.109,499.547,424.131,499.884,423.148"/>
					<path fill="#D24F50" d="M498.797,426.084l6.935,30.091c-0.401,1.008-0.829,2.011-1.283,3.009l-6.935-30.091
						C497.969,428.095,498.396,427.092,498.797,426.084"/>
					<path fill="#D65052" d="M497.514,429.093l6.935,30.091c-0.47,1.03-0.968,2.056-1.494,3.073l-6.934-30.091
						C496.547,431.148,497.045,430.123,497.514,429.093"/>
					<path fill="#DA5253" d="M496.021,432.166l6.934,30.091c-0.569,1.103-1.173,2.197-1.809,3.283l-6.934-30.091
						C494.848,434.363,495.45,433.269,496.021,432.166"/>
					<path fill="#DE5455" d="M494.212,435.449l6.934,30.091c-0.672,1.147-1.381,2.286-2.126,3.413l-6.935-30.091
						C492.83,437.735,493.539,436.598,494.212,435.449"/>
					<path fill="#E25556" d="M492.085,438.862l6.935,30.091c-0.807,1.22-1.656,2.426-2.547,3.617l-6.935-30.091
						C490.43,441.288,491.278,440.082,492.085,438.862"/>
					<path fill="#E65758" d="M489.538,442.479l6.935,30.091c-1.053,1.407-2.164,2.794-3.334,4.156l-6.934-30.09
						C487.374,445.273,488.485,443.887,489.538,442.479"/>
					<path fill="#EA585A" d="M486.205,446.637l6.934,30.09c-1.416,1.651-2.917,3.268-4.501,4.843l-6.934-30.091
						C483.288,449.903,484.789,448.287,486.205,446.637"/>
					<path fill="#F15B5C" d="M481.704,451.479l6.934,30.091c-2.553,2.54-5.32,4.976-8.297,7.284l-6.935-30.091
						C476.383,456.454,479.151,454.019,481.704,451.479"/>
					<path fill="#F2706A" d="M473.406,458.763l6.935,30.091c-4.021,3.119-8.422,6.008-13.185,8.613
						c-0.102,0.056-0.204,0.111-0.306,0.166l-6.935-30.091c0.103-0.055,0.204-0.11,0.306-0.166
						C464.985,464.771,469.386,461.882,473.406,458.763"/>
					<path fill="#F15B5C" d="M459.916,467.542l6.935,30.091c-2.835,1.538-5.736,2.944-8.693,4.218l-6.935-30.091
						C454.181,470.486,457.082,469.08,459.916,467.542"/>
					<path fill="#EA585A" d="M451.223,471.76l6.935,30.091c-1.836,0.791-3.693,1.53-5.57,2.217l-6.934-30.091
						C447.529,473.29,449.387,472.551,451.223,471.76"/>
					<path fill="#E65758" d="M445.653,473.977l6.934,30.091c-1.511,0.554-3.034,1.073-4.567,1.559l-6.935-30.091
						C442.619,475.05,444.143,474.53,445.653,473.977"/>
					<path fill="#E25556" d="M441.085,475.535l6.935,30.091c-1.367,0.432-2.741,0.837-4.124,1.215l-6.935-30.091
						C438.344,476.372,439.719,475.967,441.085,475.535"/>
					<path fill="#DE5455" d="M436.961,476.75l6.935,30.091c-1.279,0.35-2.564,0.676-3.855,0.979l-6.934-30.091
						C434.397,477.426,435.683,477.1,436.961,476.75"/>
					<path fill="#DA5253" d="M433.106,477.729l6.934,30.091c-1.227,0.287-2.458,0.554-3.694,0.798l-6.934-30.091
						C430.647,478.282,431.88,478.016,433.106,477.729"/>
					<path fill="#D65052" d="M429.412,478.526l6.934,30.091c-1.192,0.236-2.39,0.452-3.59,0.648l-6.935-30.091
						C427.021,478.979,428.219,478.763,429.412,478.526"/>
					<path fill="#D24F50" d="M425.821,479.175l6.935,30.091c-1.174,0.191-2.351,0.363-3.53,0.517l-6.935-30.091
						C423.471,479.538,424.647,479.366,425.821,479.175"/>
					<path fill="#CF4D4F" d="M422.291,479.691l6.935,30.091c-1.16,0.15-2.322,0.282-3.487,0.395l-6.935-30.091
						C419.969,479.974,421.132,479.842,422.291,479.691"/>
					<path fill="#CB4C4D" d="M418.804,480.086l6.935,30.091c-1.153,0.111-2.309,0.204-3.465,0.279l-6.935-30.091
						C416.496,480.291,417.651,480.197,418.804,480.086"/>
					<path fill="#C74A4C" d="M415.339,480.365l6.935,30.091c-1.152,0.074-2.306,0.13-3.46,0.167l-6.934-30.091
						C413.034,480.495,414.188,480.439,415.339,480.365"/>
					<path fill="#C3484A" d="M411.88,480.532l6.934,30.091c-1.147,0.036-2.296,0.055-3.446,0.055c-0.006,0-0.012,0-0.018,0
						l-6.935-30.091c0.006,0,0.013,0,0.019,0C409.583,480.587,410.731,480.568,411.88,480.532"/>
				</g>
			</g>
			<g>
				<path fill="#EB585A" d="M491.845,370.938c23.431,30.843,9.276,74.063-31.623,96.438c-15.808,8.64-33.716,13.211-51.788,13.211
					c-27.246,0-51.67-10.659-65.332-28.514c-4.707-6.152-7.565-11.874-9.537-19.09l83.904-21.37L491.845,370.938z"/>
			</g>
			<g>
				<path d="M492.032,370.378c23.855,31.195,9.645,74.773-31.569,97.321c-15.894,8.69-33.903,13.29-52.082,13.29
					c-27.404,0-51.971-10.724-65.708-28.679c-4.776-6.246-7.659-12.047-9.641-19.392l84.289-21.672L492.032,370.378z
					 M460.222,467.376c40.898-22.375,55.054-65.595,31.623-96.438l-74.34,40.668l-83.941,21.377
					c1.973,7.216,4.831,12.938,9.538,19.09c13.662,17.854,38.086,28.514,65.332,28.514
					C426.506,480.587,444.414,476.016,460.222,467.376"/>
			</g>
			<g enable-background="new    ">
				<defs>
					<path id="SVGID_23_" enable-background="new    " d="M502.23,391.796c2.312,10.031,4.622,20.06,6.934,30.09
						c6.332,27.479-9.38,58.185-41.767,75.903c-15.894,8.69-33.904,13.29-52.083,13.29c-27.404,0-51.971-10.724-65.708-28.679
						c-4.775-6.246-7.658-12.047-9.641-19.392l-6.934-30.091c1.981,7.345,4.864,13.146,9.641,19.392
						c13.737,17.955,38.304,28.679,65.708,28.679c18.179,0,36.188-4.6,52.082-13.29C492.851,449.98,508.563,419.274,502.23,391.796z
						"/>
				</defs>
				<clipPath id="SVGID_24_">
					<use xlink:href="#SVGID_23_"  overflow="visible"/>
				</clipPath>
				<g clip-path="url(#SVGID_24_)" enable-background="new    ">
					<path d="M502.23,391.796l6.934,30.09c0.186,0.806,0.353,1.613,0.5,2.423l-6.934-30.09
						C502.582,393.409,502.416,392.602,502.23,391.796"/>
					<path d="M502.73,394.219l6.934,30.09c0.188,1.033,0.347,2.07,0.475,3.11l-6.935-30.09
						C503.076,396.29,502.919,395.252,502.73,394.219"/>
					<path d="M503.204,397.33l6.935,30.09c0.123,1.007,0.219,2.016,0.285,3.026l-6.934-30.091
						C503.423,399.345,503.328,398.336,503.204,397.33"/>
					<path d="M503.49,400.355l6.934,30.091c0.064,0.972,0.104,1.945,0.116,2.92l-6.935-30.091
						C503.593,402.301,503.555,401.327,503.49,400.355"/>
					<path d="M503.605,403.275l6.935,30.091c0.013,0.967,0,1.935-0.037,2.902l-6.935-30.091
						C503.606,405.21,503.619,404.242,503.605,403.275"/>
					<path d="M503.568,406.178l6.935,30.091c-0.037,0.946-0.098,1.893-0.182,2.839l-6.935-30.091
						C503.471,408.07,503.532,407.124,503.568,406.178"/>
					<path d="M503.387,409.017l6.934,30.091c-0.084,0.945-0.191,1.891-0.323,2.836l-6.935-30.091
						C503.194,410.908,503.303,409.962,503.387,409.017"/>
					<path d="M503.063,411.853l6.935,30.091c-0.132,0.943-0.286,1.887-0.464,2.828l-6.935-30.091
						C502.777,413.739,502.932,412.796,503.063,411.853"/>
					<path d="M502.599,414.681l6.935,30.091c-0.179,0.944-0.381,1.889-0.605,2.83l-6.935-30.091
						C502.219,416.569,502.42,415.625,502.599,414.681"/>
					<path d="M501.993,417.511l6.935,30.091c-0.229,0.957-0.481,1.911-0.758,2.863l-6.935-30.091
						C501.512,419.422,501.765,418.468,501.993,417.511"/>
					<path d="M501.235,420.374l6.935,30.091c-0.281,0.966-0.586,1.929-0.914,2.888l-6.935-30.091
						C500.65,422.303,500.955,421.34,501.235,420.374"/>
					<path d="M500.321,423.262l6.935,30.091c-0.338,0.985-0.702,1.968-1.091,2.945l-6.934-30.091
						C499.62,425.229,499.983,424.247,500.321,423.262"/>
					<path d="M499.231,426.207l6.934,30.091c-0.403,1.015-0.833,2.023-1.29,3.027l-6.935-30.091
						C498.397,428.23,498.828,427.222,499.231,426.207"/>
					<path d="M497.94,429.234l6.935,30.091c-0.471,1.033-0.971,2.061-1.498,3.081l-6.934-30.091
						C496.971,431.295,497.47,430.268,497.94,429.234"/>
					<path d="M496.443,432.315l6.934,30.091c-0.573,1.108-1.179,2.209-1.818,3.301l-6.934-30.091
						C495.264,434.525,495.87,433.424,496.443,432.315"/>
					<path d="M494.625,435.616l6.934,30.091c-0.676,1.154-1.389,2.299-2.138,3.432l-6.935-30.091
						C493.235,437.915,493.948,436.771,494.625,435.616"/>
					<path d="M492.486,439.048l6.935,30.091c-0.811,1.225-1.663,2.437-2.558,3.632l-6.935-30.091
						C490.823,441.484,491.676,440.272,492.486,439.048"/>
					<path d="M489.929,442.68l6.935,30.091c-1.057,1.412-2.171,2.803-3.343,4.169l-6.935-30.091
						C487.759,445.482,488.873,444.092,489.929,442.68"/>
					<path d="M486.586,446.849l6.935,30.091c-1.423,1.659-2.931,3.282-4.521,4.865l-6.934-30.091
						C483.656,450.131,485.163,448.508,486.586,446.849"/>
					<path d="M482.065,451.714l6.934,30.091c-2.564,2.552-5.346,4.999-8.336,7.318l-6.935-30.091
						C476.719,456.713,479.5,454.266,482.065,451.714"/>
					<path fill="#121212" d="M473.729,459.032l6.935,30.091c-4.045,3.139-8.473,6.045-13.266,8.667
						c-0.107,0.059-0.215,0.117-0.321,0.176l-6.935-30.091c0.107-0.059,0.215-0.117,0.321-0.176
						C465.256,465.077,469.684,462.171,473.729,459.032"/>
					<path d="M460.142,467.875l6.935,30.091c-2.85,1.545-5.767,2.959-8.739,4.239l-6.935-30.091
						C454.376,470.834,457.292,469.42,460.142,467.875"/>
					<path d="M451.402,472.114l6.935,30.091c-1.846,0.795-3.713,1.538-5.6,2.229l-6.935-30.091
						C447.689,473.652,449.557,472.909,451.402,472.114"/>
					<path d="M445.803,474.343l6.935,30.091c-1.52,0.557-3.051,1.079-4.593,1.566l-6.934-30.091
						C442.753,475.422,444.284,474.899,445.803,474.343"/>
					<path d="M441.211,475.909L448.145,506c-1.373,0.435-2.756,0.842-4.146,1.223l-6.935-30.091
						C438.455,476.752,439.837,476.344,441.211,475.909"/>
					<path d="M437.064,477.132l6.935,30.091c-1.286,0.351-2.579,0.679-3.877,0.983l-6.934-30.091
						C434.486,477.811,435.778,477.482,437.064,477.132"/>
					<path d="M433.188,478.115l6.934,30.091c-1.234,0.289-2.474,0.557-3.718,0.803l-6.935-30.091
						C430.714,478.672,431.954,478.404,433.188,478.115"/>
					<path d="M429.47,478.918l6.935,30.091c-1.198,0.237-2.401,0.454-3.607,0.651l-6.935-30.091
						C427.068,479.373,428.271,479.155,429.47,478.918"/>
					<path d="M425.862,479.569l6.935,30.091c-1.18,0.192-2.363,0.365-3.549,0.52l-6.935-30.091
						C423.5,479.936,424.683,479.762,425.862,479.569"/>
					<path d="M422.313,480.089l6.935,30.091c-1.166,0.151-2.335,0.283-3.506,0.396l-6.935-30.091
						C419.979,480.372,421.147,480.24,422.313,480.089"/>
					<path d="M418.808,480.485l6.935,30.091c-1.159,0.112-2.321,0.206-3.484,0.28l-6.934-30.091
						C416.487,480.691,417.648,480.598,418.808,480.485"/>
					<path d="M415.324,480.766l6.934,30.091c-1.158,0.075-2.317,0.131-3.479,0.168l-6.934-30.091
						C413.007,480.896,414.166,480.841,415.324,480.766"/>
					<path d="M411.846,480.934l6.934,30.091c-1.153,0.037-2.309,0.056-3.465,0.056c-0.006,0-0.012,0-0.018,0l-6.935-30.091
						c0.006,0,0.013,0,0.019,0C409.536,480.989,410.691,480.971,411.846,480.934"/>
					<path d="M408.362,480.989l6.935,30.091c-1.14,0-2.274-0.019-3.403-0.056l-6.935-30.091
						C406.089,480.971,407.223,480.989,408.362,480.989"/>
					<path d="M404.959,480.934l6.935,30.091c-1.142-0.038-2.278-0.094-3.408-0.168l-6.935-30.091
						C402.681,480.84,403.817,480.896,404.959,480.934"/>
					<path d="M401.551,480.766l6.935,30.091c-1.148-0.076-2.289-0.171-3.424-0.284l-6.934-30.091
						C399.262,480.595,400.403,480.689,401.551,480.766"/>
					<path d="M398.128,480.481l6.934,30.091c-1.16-0.116-2.313-0.252-3.457-0.407l-6.934-30.091
						C395.815,480.229,396.968,480.365,398.128,480.481"/>
					<path d="M394.671,480.074l6.934,30.091c-1.179-0.16-2.35-0.34-3.511-0.54l-6.935-30.091
						C392.321,479.734,393.491,479.914,394.671,480.074"/>
					<path d="M391.159,479.534l6.935,30.091c-1.205-0.208-2.4-0.438-3.585-0.689l-6.935-30.091
						C388.759,479.097,389.954,479.326,391.159,479.534"/>
					<path d="M387.574,478.845l6.935,30.091c-1.243-0.263-2.474-0.55-3.691-0.86l-6.935-30.091
						C385.101,478.295,386.332,478.582,387.574,478.845"/>
					<path d="M383.883,477.984l6.935,30.091c-1.296-0.33-2.577-0.686-3.843-1.067l-6.935-30.091
						C381.306,477.299,382.587,477.654,383.883,477.984"/>
					<path d="M380.04,476.917l6.935,30.091c-1.371-0.413-2.724-0.856-4.056-1.33l-6.935-30.091
						C377.317,476.061,378.67,476.504,380.04,476.917"/>
					<path d="M375.984,475.587l6.935,30.091c-1.478-0.523-2.93-1.084-4.356-1.68l-6.934-30.091
						C373.055,474.503,374.508,475.063,375.984,475.587"/>
					<path d="M371.629,473.907l6.934,30.091c-1.644-0.687-3.252-1.42-4.823-2.198l-6.934-30.091
						C368.377,472.487,369.985,473.221,371.629,473.907"/>
					<path d="M366.806,471.709l6.934,30.091c-2.01-0.997-3.958-2.067-5.839-3.211l-6.934-30.091
						C362.847,469.642,364.795,470.713,366.806,471.709"/>
					<path d="M360.967,468.498l6.934,30.091c-7.218-4.388-13.434-9.835-18.294-16.188c-4.775-6.246-7.658-12.047-9.641-19.392
						l-6.934-30.091c1.981,7.345,4.864,13.146,9.641,19.392C347.533,458.663,353.749,464.11,360.967,468.498"/>
				</g>
			</g>
		</g>
	</g>
</g>
<g>
	<g>
	</g>
	<g>
	</g>
	<g>
	</g>
</g>
<text transform="matrix(1 0 0 1 443.1074 366.3218)" font-family="'MyriadPro-Regular'" font-size="12">15%</text>
<text transform="matrix(1 0 0 1 366.3213 388.6431)" font-family="'MyriadPro-Regular'" font-size="12">30%</text>
<text transform="matrix(1 0 0 1 423.4102 449.3574)" font-family="'MyriadPro-Regular'" font-size="12">55%</text>
<g>
	<g>
		<g enable-background="new    ">
			<g>
				<polygon fill="#99736D" points="311.918,300.849 284.457,290.203 286.007,219.403 313.468,230.049 				"/>
			</g>
			<g>
				<polygon fill="#B78A83" points="313.468,230.049 286.007,219.403 328.676,213.513 356.137,224.159 				"/>
			</g>
			<g>
				<polygon fill="#DFA89E" points="356.137,224.159 354.587,294.959 311.918,300.849 313.468,230.049 				"/>
			</g>
		</g>
		<g enable-background="new    ">
			<g>
				<polygon fill="#975F58" points="264.52,307.391 237.06,296.745 238.499,231 265.959,241.646 				"/>
			</g>
			<g>
				<polygon fill="#B5736B" points="265.959,241.646 238.499,231 281.16,225.112 308.62,235.758 				"/>
			</g>
			<g>
				<polygon fill="#DC8B82" points="308.62,235.758 307.182,301.502 264.52,307.391 265.959,241.646 				"/>
			</g>
		</g>
		<g enable-background="new    ">
			<g>
				<polygon fill="#954A45" points="217.114,313.934 189.654,303.288 190.384,269.914 217.845,280.56 				"/>
			</g>
			<g>
				<polygon fill="#B35B55" points="217.845,280.56 190.384,269.914 233.046,264.025 260.506,274.671 				"/>
			</g>
			<g>
				<polygon fill="#DA7068" points="260.506,274.671 259.775,308.046 217.114,313.934 217.845,280.56 				"/>
			</g>
		</g>
		<g enable-background="new    ">
			<g>
				<polygon fill="#9A8784" points="169.709,320.478 142.248,309.832 144.13,223.854 171.591,234.5 				"/>
			</g>
			<g>
				<polygon fill="#B9A29E" points="171.591,234.5 144.13,223.854 186.792,217.966 214.252,228.612 				"/>
			</g>
			<g>
				<polygon fill="#E2C5BE" points="214.252,228.612 212.37,314.589 169.709,320.478 171.591,234.5 				"/>
			</g>
		</g>
	</g>
</g>
<g>
	<g>
	</g>
	<g>
	</g>
	<g>
	</g>
	<g>
	</g>
</g>
<text transform="matrix(1 0 0 1 184.1787 332.77)" font-family="'MyriadPro-Regular'" font-size="12">85%</text>
<text transform="matrix(1 0 0 1 232.3931 327.0366)" font-family="'MyriadPro-Regular'" font-size="12">33%</text>
<text transform="matrix(1 0 0 1 282.1919 318.1084)" font-family="'MyriadPro-Regular'" font-size="12">65%</text>
<text transform="matrix(1 0 0 1 328.8213 313.6431)" font-family="'MyriadPro-Regular'" font-size="12">70%</text>
<text transform="matrix(1 0 0 1 419.8389 644.8936)"><tspan x="0" y="0" font-family="'MyriadPro-Regular'" font-size="12">Laboratorul 6</tspan><tspan x="0" y="14.4" font-family="'MyriadPro-Regular'" font-size="12">Apareci Aurica</tspan><tspan x="0" y="28.8" font-family="'MyriadPro-Regular'" font-size="12">AAW 2023</tspan></text>
</svg>
