<?xml version="1.0" encoding="utf-8"?>
<!-- Generator: Adobe Illustrator 16.0.2, SVG Export Plug-In . SVG Version: 6.00 Build 0)  -->
<!DOCTYPE svg PUBLIC "-//W3C//DTD SVG 1.1//EN" "http://www.w3.org/Graphics/SVG/1.1/DTD/svg11.dtd">
<svg version="1.1" id="Layer_1" xmlns="http://www.w3.org/2000/svg" xmlns:xlink="http://www.w3.org/1999/xlink" x="0px" y="0px"
	 width="595.276px" height="841.89px" viewBox="0 0 595.276 841.89" enable-background="new 0 0 595.276 841.89"
	 xml:space="preserve">
<g>
	<g>
		<g enable-background="new    ">
			<g enable-background="new    ">
				<defs>
					<path id="SVGID_1_" enable-background="new    " d="M398.988,524.473l-22.793-12.399c5.478-5.792,10.607-12.034,15.264-18.584
						l22.794,12.399C409.597,512.439,404.466,518.681,398.988,524.473z"/>
				</defs>
				<clipPath id="SVGID_2_">
					<use xlink:href="#SVGID_1_"  overflow="visible"/>
				</clipPath>
				<g clip-path="url(#SVGID_2_)" enable-background="new    ">
					<path fill="#999999" d="M398.988,524.473l-22.793-12.399c1.334-1.411,2.647-2.849,3.938-4.311l22.794,12.399
						C401.637,521.625,400.322,523.062,398.988,524.473"/>
					<path fill="#949494" d="M402.928,520.163l-22.794-12.399c4.011-4.54,7.804-9.319,11.325-14.273l22.794,12.399
						C410.73,510.843,406.938,515.623,402.928,520.163"/>
				</g>
			</g>
			<g enable-background="new    ">
				<defs>
					<path id="SVGID_3_" enable-background="new    " d="M438.295,457.805l-22.794-12.399c2.425-7.645,4.313-15.448,5.603-23.217
						l22.793,12.399C442.607,442.357,440.719,450.161,438.295,457.805z"/>
				</defs>
				<clipPath id="SVGID_4_">
					<use xlink:href="#SVGID_3_"  overflow="visible"/>
				</clipPath>
				<g clip-path="url(#SVGID_4_)" enable-background="new    ">
					<path fill="#858585" d="M438.295,457.805l-22.794-12.399c2.425-7.645,4.313-15.448,5.603-23.217l22.793,12.399
						C442.607,442.357,440.719,450.161,438.295,457.805"/>
				</g>
			</g>
			<g>
				<polygon fill="#808080" points="414.253,505.889 391.459,493.49 380.29,474.124 403.084,486.523 				"/>
			</g>
			<g>
				<polygon fill="#959595" points="403.084,486.523 380.29,474.124 393.049,448.561 415.843,460.96 				"/>
			</g>
			<g>
				<polygon fill="#B4B4B4" points="415.843,460.96 393.049,448.561 415.501,445.406 438.295,457.805 				"/>
			</g>
			<g>
				<polygon fill="#9F9F9F" points="379.608,515.106 356.814,502.707 376.195,512.074 398.988,524.473 				"/>
			</g>
			<g>
				<polygon fill="#565656" points="424.486,425.205 401.693,412.805 421.104,422.189 443.896,434.588 				"/>
			</g>
			<g>
				<polygon fill="#9F9F9F" points="425.375,424.526 402.581,412.126 422.09,421.557 444.883,433.957 				"/>
			</g>
			<g>
				<polygon fill="#ACACAC" points="357.552,531.922 334.759,519.523 356.814,502.707 379.608,515.106 				"/>
			</g>
			<g>
				<polygon fill="#828282" points="357.507,556.156 334.714,543.756 334.759,519.523 357.552,531.922 				"/>
			</g>
			<g enable-background="new    ">
				<defs>
					<path id="SVGID_5_" enable-background="new    " d="M336.709,565.079l-22.793-12.399c7.036-2.371,14.035-5.371,20.798-8.923
						l22.793,12.399C350.744,559.708,343.746,562.708,336.709,565.079z"/>
				</defs>
				<clipPath id="SVGID_6_">
					<use xlink:href="#SVGID_5_"  overflow="visible"/>
				</clipPath>
				<g clip-path="url(#SVGID_6_)" enable-background="new    ">
					<path fill="#A8A8A8" d="M336.709,565.079l-22.793-12.399c5.106-1.721,10.193-3.772,15.184-6.126l22.793,12.399
						C346.902,561.306,341.815,563.358,336.709,565.079"/>
					<path fill="#A3A3A3" d="M351.893,558.953L329.1,546.553c1.887-0.89,3.759-1.823,5.614-2.797l22.793,12.399
						C355.652,557.129,353.779,558.062,351.893,558.953"/>
				</g>
			</g>
			<g>
				<polygon fill="#ACACAC" points="424.537,397.755 401.744,385.356 421.199,370.513 443.993,382.912 				"/>
			</g>
			<g>
				<polygon fill="#828282" points="424.486,425.205 401.693,412.805 401.744,385.356 424.537,397.755 				"/>
			</g>
			<g enable-background="new    ">
				<defs>
					<path id="SVGID_7_" enable-background="new    " d="M443.993,382.912l-22.794-12.399c-1.261-7.413-3.121-14.696-5.519-21.657
						l22.793,12.399C440.871,368.216,442.731,375.5,443.993,382.912z"/>
				</defs>
				<clipPath id="SVGID_8_">
					<use xlink:href="#SVGID_7_"  overflow="visible"/>
				</clipPath>
				<g clip-path="url(#SVGID_8_)" enable-background="new    ">
					<path fill="#858585" d="M443.993,382.912l-22.794-12.399c-1.261-7.413-3.121-14.696-5.519-21.657l22.793,12.399
						C440.871,368.216,442.731,375.5,443.993,382.912"/>
				</g>
			</g>
			<g>
				<polygon fill="#565656" points="336.709,565.079 313.916,552.679 302.861,533.504 325.654,545.904 				"/>
			</g>
			<g>
				<polygon fill="#808080" points="336.557,566.112 313.764,553.712 302.218,534.315 325.012,546.714 				"/>
			</g>
			<g>
				<polygon fill="#565656" points="415.894,364.188 393.101,351.789 415.681,348.856 438.474,361.255 				"/>
			</g>
			<g>
				<polygon fill="#B4B4B4" points="416.543,363.38 393.749,350.98 416.308,347.81 439.101,360.209 				"/>
			</g>
			<g>
				<polygon fill="#969696" points="288.834,571.807 266.041,559.408 277.301,536.856 300.095,549.255 				"/>
			</g>
			<g>
				<polygon fill="#B4B4B4" points="300.095,549.255 277.301,536.856 302.733,533.282 325.526,545.681 				"/>
			</g>
			<g enable-background="new    ">
				<defs>
					<path id="SVGID_9_" enable-background="new    " d="M290.075,501.687c44.419-6.242,80.626-50.322,80.715-98.264
						c7.598,4.133,15.195,8.266,22.793,12.399c-0.089,47.942-36.296,92.022-80.715,98.265
						C306.03,510.367,296.913,505.408,290.075,501.687z"/>
				</defs>
				<clipPath id="SVGID_10_">
					<use xlink:href="#SVGID_9_"  overflow="visible"/>
				</clipPath>
				<g clip-path="url(#SVGID_10_)" enable-background="new    ">
					<path fill="#565656" d="M312.868,514.086l-22.793-12.399c8.161-1.146,16.044-3.57,23.478-7.062l22.793,12.399
						C328.913,510.516,321.029,512.94,312.868,514.086"/>
					<path fill="#565656" d="M336.346,507.025l-22.793-12.399c4.543-2.133,8.919-4.665,13.086-7.547l22.793,12.399
						C345.265,502.36,340.89,504.892,336.346,507.025"/>
					<path fill="#565656" d="M349.432,499.478l-22.793-12.399c3.397-2.35,6.657-4.933,9.758-7.722l22.793,12.398
						C356.089,494.545,352.83,497.127,349.432,499.478"/>
					<path fill="#565656" d="M359.189,491.755l-22.793-12.398c2.891-2.602,5.644-5.384,8.24-8.323l22.793,12.399
						C364.833,486.373,362.08,489.154,359.189,491.755"/>
					<path fill="#565656" d="M367.43,483.433l-22.793-12.399c2.583-2.926,5.013-6.009,7.271-9.228l22.793,12.398
						C372.442,477.424,370.014,480.507,367.43,483.433"/>
					<path fill="#565656" d="M374.7,474.205l-22.793-12.398c2.392-3.411,4.59-6.975,6.576-10.666l22.793,12.399
						C379.291,467.231,377.092,470.794,374.7,474.205"/>
					<path fill="#565656" d="M381.276,463.54l-22.793-12.399c2.345-4.359,4.394-8.898,6.11-13.574l22.794,12.399
						C385.67,454.641,383.622,459.18,381.276,463.54"/>
					<path fill="#565656" d="M387.388,449.965l-22.794-12.399c3.971-10.812,6.175-22.361,6.196-34.143
						c0.058-30.887-14.896-55.957-37.423-68.211l22.793,12.399c22.527,12.254,37.48,37.324,37.423,68.21
						C393.562,427.604,391.358,439.154,387.388,449.965"/>
				</g>
			</g>
			<g>
				<polygon fill="#808080" points="416.021,364.411 393.229,352.011 380.559,330.022 403.352,342.422 				"/>
			</g>
			<g>
				<polygon fill="#969696" points="403.352,342.422 380.559,330.022 391.805,307.5 414.598,319.899 				"/>
			</g>
			<g enable-background="new    ">
				<defs>
					<path id="SVGID_11_" enable-background="new    " d="M268.056,568.727l-22.793-12.399c6.755,1.652,13.738,2.688,20.778,3.08
						l22.793,12.399C281.794,571.415,274.812,570.378,268.056,568.727z"/>
				</defs>
				<clipPath id="SVGID_12_">
					<use xlink:href="#SVGID_11_"  overflow="visible"/>
				</clipPath>
				<g clip-path="url(#SVGID_12_)" enable-background="new    ">
					<path fill="#A8A8A8" d="M268.056,568.727l-22.793-12.399c6.755,1.652,13.738,2.688,20.778,3.08l22.793,12.399
						C281.794,571.415,274.812,570.378,268.056,568.727"/>
				</g>
			</g>
			<g enable-background="new    ">
				<defs>
					<path id="SVGID_13_" enable-background="new    " d="M414.598,319.899L391.805,307.5c-4.635-5.235-9.752-10.049-15.203-14.295
						l22.793,12.399C404.846,309.85,409.964,314.665,414.598,319.899z"/>
				</defs>
				<clipPath id="SVGID_14_">
					<use xlink:href="#SVGID_13_"  overflow="visible"/>
				</clipPath>
				<g clip-path="url(#SVGID_14_)" enable-background="new    ">
					<path fill="#858585" d="M414.598,319.899L391.805,307.5c-4.635-5.235-9.752-10.049-15.203-14.295l22.793,12.399
						C404.846,309.85,409.964,314.665,414.598,319.899"/>
				</g>
			</g>
			<g>
				<polygon fill="#565656" points="268.056,568.727 245.263,556.328 245.308,532.094 268.101,544.494 				"/>
			</g>
			<g>
				<polygon fill="#828282" points="267.463,569.599 244.669,557.2 244.419,532.783 267.212,545.182 				"/>
			</g>
			<g>
				<polygon fill="#565656" points="379.97,320.428 357.177,308.028 376.602,293.205 399.395,305.604 				"/>
			</g>
			<g>
				<polygon fill="#ACACAC" points="379.972,319.319 357.179,306.92 376.707,292.021 399.5,304.421 				"/>
			</g>
			<g enable-background="new    ">
				<defs>
					<path id="SVGID_15_" enable-background="new    " d="M246.93,494.184c12.47,6.835,27.274,9.733,43.145,7.503l22.793,12.399
						c-15.871,2.23-30.675-0.668-43.145-7.503C262.885,502.864,253.768,497.904,246.93,494.184z"/>
				</defs>
				<clipPath id="SVGID_16_">
					<use xlink:href="#SVGID_15_"  overflow="visible"/>
				</clipPath>
				<g clip-path="url(#SVGID_16_)" enable-background="new    ">
					<path fill="#565656" d="M269.91,506.685l-22.793-12.399c0.811,0.44,1.63,0.865,2.46,1.272l22.793,12.399
						C271.54,507.55,270.72,507.125,269.91,506.685"/>
					<path fill="#565656" d="M272.37,507.958l-22.793-12.399c4.036,1.981,8.295,3.563,12.738,4.706l22.793,12.399
						C280.665,511.52,276.405,509.939,272.37,507.958"/>
					<path fill="#565656" d="M285.108,512.664l-22.793-12.399c8.654,2.228,18.006,2.794,27.761,1.423l22.793,12.399
						C303.114,515.458,293.762,514.891,285.108,512.664"/>
				</g>
			</g>
			<g enable-background="new    ">
				<defs>
					<path id="SVGID_17_" enable-background="new    " d="M270.384,505.806c-0.342-0.186-0.797-0.434-1.14-0.62
						c-7.218-3.926-14.435-7.853-21.653-11.779c12.293,6.688,26.868,9.515,42.486,7.32l22.793,12.399
						C297.252,515.321,282.677,512.494,270.384,505.806z"/>
				</defs>
				<clipPath id="SVGID_18_">
					<use xlink:href="#SVGID_17_"  overflow="visible"/>
				</clipPath>
				<g clip-path="url(#SVGID_18_)" enable-background="new    ">
					<path fill="#9E9E9E" d="M270.384,505.806l-22.793-12.399c0.801,0.437,1.612,0.855,2.433,1.259l22.793,12.398
						C271.996,506.662,271.186,506.242,270.384,505.806"/>
					<path fill="#A3A3A3" d="M272.816,507.064l-22.793-12.398c3.991,1.959,8.203,3.522,12.597,4.654l22.793,12.398
						C281.02,510.587,276.808,509.024,272.816,507.064"/>
					<path fill="#A8A8A8" d="M285.414,511.718l-22.793-12.398c8.559,2.202,17.809,2.763,27.457,1.407l22.793,12.399
						C303.223,514.482,293.973,513.921,285.414,511.718"/>
				</g>
			</g>
			<g enable-background="new    ">
				<defs>
					<path id="SVGID_19_" enable-background="new    " d="M370.79,403.423c0.058-30.804-14.815-55.821-37.241-68.111l22.794,12.399
						c22.425,12.29,37.298,37.308,37.24,68.111C385.985,411.689,378.388,407.556,370.79,403.423z"/>
				</defs>
				<clipPath id="SVGID_20_">
					<use xlink:href="#SVGID_19_"  overflow="visible"/>
				</clipPath>
				<g clip-path="url(#SVGID_20_)" enable-background="new    ">
					<path fill="#565656" d="M387.388,449.965l-22.794-12.399c3.971-10.812,6.175-22.361,6.196-34.143
						c0.058-30.887-14.896-55.957-37.423-68.211l22.793,12.399c22.527,12.254,37.48,37.324,37.423,68.21
						C393.562,427.604,391.358,439.154,387.388,449.965"/>
				</g>
			</g>
			<g enable-background="new    ">
				<defs>
					<path id="SVGID_21_" enable-background="new    " d="M332.894,336.091c7.598,4.133,15.195,8.266,22.793,12.399
						c22.277,12.119,37.063,36.91,37.007,67.457c-0.088,47.416-35.893,91.004-79.823,97.179l-22.793-12.399
						c43.93-6.174,79.734-49.764,79.823-97.179C369.957,373.001,355.171,348.209,332.894,336.091z"/>
				</defs>
				<clipPath id="SVGID_22_">
					<use xlink:href="#SVGID_21_"  overflow="visible"/>
				</clipPath>
				<g clip-path="url(#SVGID_22_)" enable-background="new    ">
					<path fill="#A8A8A8" d="M312.87,513.126l-22.793-12.399c8.071-1.135,15.868-3.532,23.22-6.984l22.794,12.399
						C328.738,509.594,320.941,511.992,312.87,513.126"/>
					<path fill="#A3A3A3" d="M336.091,506.142l-22.794-12.399c4.494-2.109,8.82-4.613,12.941-7.464l22.794,12.399
						C344.91,501.529,340.584,504.033,336.091,506.142"/>
					<path fill="#9E9E9E" d="M349.032,498.678l-22.794-12.399c3.36-2.324,6.584-4.878,9.649-7.636l22.793,12.399
						C355.615,493.8,352.392,496.354,349.032,498.678"/>
					<path fill="#999999" d="M358.681,491.042l-22.793-12.399c2.859-2.573,5.581-5.323,8.148-8.23l22.793,12.399
						C364.262,485.719,361.54,488.469,358.681,491.042"/>
					<path fill="#949494" d="M366.829,482.812l-22.793-12.399c2.555-2.894,4.957-5.941,7.189-9.125l22.793,12.399
						C371.786,476.871,369.385,479.918,366.829,482.812"/>
					<path fill="#8F8F8F" d="M374.019,473.687l-22.793-12.399c2.365-3.373,4.54-6.896,6.504-10.547l22.793,12.399
						C378.559,466.791,376.384,470.314,374.019,473.687"/>
					<path fill="#8A8A8A" d="M380.522,463.14l-22.793-12.399c2.319-4.312,4.344-8.8,6.043-13.424l22.793,12.399
						C384.867,454.34,382.842,458.829,380.522,463.14"/>
					<path fill="#858585" d="M386.565,449.716l-22.793-12.399c3.927-10.692,6.105-22.115,6.128-33.769
						c0.057-30.546-14.73-55.338-37.008-67.457l22.794,12.399c22.277,12.119,37.063,36.91,37.007,67.457
						C392.672,427.601,390.492,439.023,386.565,449.716"/>
				</g>
			</g>
			<g>
				<polygon fill="#9F9F9F" points="246.098,533.87 223.305,521.47 245.308,532.094 268.101,544.494 				"/>
			</g>
			<g>
				<polygon fill="#565656" points="357.965,309.792 335.171,297.392 357.177,308.028 379.97,320.428 				"/>
			</g>
			<g>
				<polygon fill="#9F9F9F" points="358.855,309.115 336.063,296.716 357.179,306.92 379.972,319.319 				"/>
			</g>
			<g>
				<polygon fill="#ACACAC" points="226.668,548.691 203.875,536.292 223.305,521.47 246.098,533.87 				"/>
			</g>
			<g>
				<polygon fill="#828282" points="357.965,309.792 335.171,297.392 335.216,273.168 358.01,285.567 				"/>
			</g>
			<g enable-background="new    ">
				<defs>
					<path id="SVGID_23_" enable-background="new    " d="M203.872,536.292c-5.445-4.248-10.561-9.06-15.195-14.303l22.793,12.399
						c4.635,5.243,9.75,10.055,15.195,14.303l-22.722-12.36C203.922,536.32,203.892,536.305,203.872,536.292z"/>
				</defs>
				<clipPath id="SVGID_24_">
					<use xlink:href="#SVGID_23_"  overflow="visible"/>
				</clipPath>
				<g clip-path="url(#SVGID_24_)" enable-background="new    ">
					<path fill="#565656" d="M226.665,548.692l-22.793-12.399c-5.445-4.248-10.561-9.06-15.195-14.303l22.793,12.399
						C216.104,539.632,221.22,544.444,226.665,548.692"/>
				</g>
			</g>
			<g enable-background="new    ">
				<defs>
					<path id="SVGID_25_" enable-background="new    " d="M226.568,549.874l-22.793-12.399c-5.894-4.566-11.193-9.552-15.98-14.999
						l22.793,12.399C215.375,540.322,220.674,545.306,226.568,549.874z"/>
				</defs>
				<clipPath id="SVGID_26_">
					<use xlink:href="#SVGID_25_"  overflow="visible"/>
				</clipPath>
				<g clip-path="url(#SVGID_26_)" enable-background="new    ">
					<path fill="#858585" d="M226.568,549.874l-22.793-12.399c-5.894-4.566-11.193-9.552-15.98-14.999l22.793,12.399
						C215.375,540.322,220.674,545.306,226.568,549.874"/>
				</g>
			</g>
			<g>
				<polygon fill="#565656" points="211.47,534.389 188.677,521.99 199.921,499.473 222.714,511.873 				"/>
			</g>
			<g>
				<polygon fill="#959595" points="210.587,534.875 187.794,522.475 198.896,499.617 221.69,512.016 				"/>
			</g>
			<g enable-background="new    ">
				<defs>
					<path id="SVGID_27_" enable-background="new    " d="M333.367,335.212c7.599,4.133,15.195,8.266,22.794,12.399
						c-12.434-6.763-27.173-9.623-42.97-7.403l-22.793-12.399C306.194,325.589,320.935,328.449,333.367,335.212z"/>
				</defs>
				<clipPath id="SVGID_28_">
					<use xlink:href="#SVGID_27_"  overflow="visible"/>
				</clipPath>
				<g clip-path="url(#SVGID_28_)" enable-background="new    ">
					<path fill="#A8A8A8" d="M313.191,340.208l-22.793-12.399c9.758-1.371,19.113-0.804,27.769,1.424l22.793,12.399
						C332.304,339.404,322.949,338.837,313.191,340.208"/>
					<path fill="#A3A3A3" d="M340.96,341.632l-22.793-12.399c4.444,1.144,8.704,2.725,12.74,4.707l22.794,12.399
						C349.664,344.357,345.404,342.776,340.96,341.632"/>
					<path fill="#9E9E9E" d="M353.701,346.339l-22.794-12.399c0.83,0.407,1.65,0.832,2.46,1.272l22.794,12.399
						C355.351,347.171,354.53,346.747,353.701,346.339"/>
				</g>
			</g>
			<g enable-background="new    ">
				<defs>
					<path id="SVGID_29_" enable-background="new    " d="M337.234,282.478l-22.793-12.399c7.031,0.396,14.014,1.438,20.774,3.089
						l22.794,12.399C351.248,283.917,344.266,282.875,337.234,282.478z"/>
				</defs>
				<clipPath id="SVGID_30_">
					<use xlink:href="#SVGID_29_"  overflow="visible"/>
				</clipPath>
				<g clip-path="url(#SVGID_30_)" enable-background="new    ">
					<path fill="#565656" d="M337.234,282.478l-22.793-12.399c7.031,0.396,14.014,1.438,20.774,3.089l22.794,12.399
						C351.248,283.917,344.266,282.875,337.234,282.478"/>
				</g>
			</g>
			<g>
				<polygon fill="#565656" points="325.974,305.039 303.18,292.639 314.441,270.079 337.234,282.478 				"/>
			</g>
			<g enable-background="new    ">
				<defs>
					<path id="SVGID_31_" enable-background="new    " d="M336.781,281.479l-22.793-12.399c7.589,0.402,14.828,1.478,21.824,3.21
						l22.793,12.399C351.61,282.957,344.371,281.881,336.781,281.479z"/>
				</defs>
				<clipPath id="SVGID_32_">
					<use xlink:href="#SVGID_31_"  overflow="visible"/>
				</clipPath>
				<g clip-path="url(#SVGID_32_)" enable-background="new    ">
					<path fill="#A8A8A8" d="M336.781,281.479l-22.793-12.399c7.589,0.402,14.828,1.478,21.824,3.21l22.793,12.399
						C351.61,282.957,344.371,281.881,336.781,281.479"/>
				</g>
			</g>
			<g>
				<polygon fill="#969696" points="325.462,304.144 302.669,291.745 313.988,269.08 336.781,281.479 				"/>
			</g>
			<g>
				<polygon fill="#565656" points="222.714,511.873 199.921,499.473 187.245,477.486 210.038,489.884 				"/>
			</g>
			<g>
				<polygon fill="#808080" points="221.69,512.016 198.896,499.617 186.729,478.515 209.523,490.915 				"/>
			</g>
			<g>
				<polygon fill="#565656" points="300.542,308.613 277.748,296.213 303.18,292.639 325.974,305.039 				"/>
			</g>
			<g>
				<polygon fill="#B4B4B4" points="301.054,307.575 278.261,295.175 302.669,291.745 325.462,304.144 				"/>
			</g>
			<g>
				<polygon fill="#B4B4B4" points="187.594,493.039 164.801,480.64 187.245,477.486 210.038,489.884 				"/>
			</g>
			<g>
				<polygon fill="#808080" points="300.542,308.613 277.748,296.213 266.565,276.807 289.359,289.207 				"/>
			</g>
			<g enable-background="new    ">
				<defs>
					<path id="SVGID_33_" enable-background="new    " d="M269.91,506.685l-22.793-12.399
						c-22.527-12.255-37.482-37.327-37.425-68.222c0.089-47.934,36.296-92.013,80.707-98.255l22.793,12.399
						c-44.41,6.241-80.618,50.321-80.707,98.255C232.427,469.358,247.382,494.43,269.91,506.685z"/>
				</defs>
				<clipPath id="SVGID_34_">
					<use xlink:href="#SVGID_33_"  overflow="visible"/>
				</clipPath>
				<g clip-path="url(#SVGID_34_)" enable-background="new    ">
					<path fill="#858585" d="M269.91,506.685l-22.793-12.399c-22.527-12.255-37.482-37.327-37.425-68.222
						c0.022-11.779,2.225-23.326,6.195-34.136l22.793,12.399c-3.97,10.81-6.173,22.356-6.195,34.136
						C232.427,469.358,247.382,494.43,269.91,506.685"/>
					<path fill="#8A8A8A" d="M238.68,404.328l-22.793-12.399c1.717-4.676,3.766-9.214,6.111-13.574l22.793,12.399
						C242.445,395.113,240.397,399.651,238.68,404.328"/>
					<path fill="#8F8F8F" d="M244.79,390.754l-22.793-12.399c1.986-3.692,4.185-7.255,6.577-10.666l22.793,12.399
						C248.975,383.499,246.776,387.062,244.79,390.754"/>
					<path fill="#949494" d="M251.367,380.088l-22.793-12.399c2.258-3.219,4.687-6.302,7.271-9.228l22.793,12.399
						C256.054,373.786,253.625,376.869,251.367,380.088"/>
					<path fill="#999999" d="M258.638,370.86l-22.793-12.399c2.597-2.94,5.349-5.722,8.241-8.323l22.793,12.399
						C263.987,365.138,261.234,367.919,258.638,370.86"/>
					<path fill="#9E9E9E" d="M266.878,362.537l-22.793-12.399c3.101-2.79,6.36-5.372,9.758-7.722l22.793,12.399
						C273.238,357.165,269.979,359.747,266.878,362.537"/>
					<path fill="#A3A3A3" d="M276.636,354.815l-22.793-12.399c4.167-2.882,8.542-5.414,13.084-7.547l22.793,12.399
						C285.178,349.401,280.803,351.933,276.636,354.815"/>
					<path fill="#A8A8A8" d="M289.72,347.268l-22.793-12.399c7.431-3.489,15.313-5.913,23.471-7.06l22.793,12.399
						C305.033,341.355,297.152,343.778,289.72,347.268"/>
				</g>
			</g>
			<g>
				<path fill="#DFDFDF" d="M313.191,340.208c44.419-6.243,80.48,27.68,80.392,75.613c-0.089,47.942-36.296,92.022-80.715,98.265
					c-44.41,6.242-80.473-27.681-80.383-75.623C232.574,390.53,268.781,346.45,313.191,340.208z M312.87,513.126
					c43.931-6.175,79.735-49.764,79.823-97.179c0.088-47.406-35.573-80.952-79.504-74.778
					c-43.922,6.173-79.727,49.763-79.814,97.168C233.287,485.753,268.948,519.299,312.87,513.126"/>
			</g>
			<g>
				<polygon fill="#565656" points="182.067,471.386 159.273,458.987 178.514,444.309 201.308,456.708 				"/>
			</g>
			<g enable-background="new    ">
				<defs>
					<path id="SVGID_35_" enable-background="new    " d="M187.594,493.039l-22.793-12.398c-2.405-6.967-4.258-14.244-5.527-21.653
						l22.793,12.399C183.336,478.794,185.189,486.073,187.594,493.039z"/>
				</defs>
				<clipPath id="SVGID_36_">
					<use xlink:href="#SVGID_35_"  overflow="visible"/>
				</clipPath>
				<g clip-path="url(#SVGID_36_)" enable-background="new    ">
					<path fill="#565656" d="M187.594,493.039l-22.793-12.398c-2.405-6.967-4.258-14.244-5.527-21.653l22.793,12.399
						C183.336,478.794,185.189,486.073,187.594,493.039"/>
				</g>
			</g>
			<g enable-background="new    ">
				<defs>
					<path id="SVGID_37_" enable-background="new    " d="M186.967,494.084l-22.793-12.399c-2.614-7.506-4.539-15.048-5.83-22.733
						l22.793,12.399C182.429,479.037,184.354,486.579,186.967,494.084z"/>
				</defs>
				<clipPath id="SVGID_38_">
					<use xlink:href="#SVGID_37_"  overflow="visible"/>
				</clipPath>
				<g clip-path="url(#SVGID_38_)" enable-background="new    ">
					<path fill="#858585" d="M186.967,494.084l-22.793-12.399c-2.614-7.506-4.539-15.048-5.83-22.733l22.793,12.399
						C182.429,479.037,184.354,486.579,186.967,494.084"/>
				</g>
			</g>
			<g>
				<polygon fill="#565656" points="201.308,456.708 178.514,444.309 178.789,416.69 201.582,429.089 				"/>
			</g>
			<g>
				<polygon fill="#ACACAC" points="181.138,471.351 158.345,458.952 177.843,443.711 200.636,456.111 				"/>
			</g>
			<g>
				<polygon fill="#828282" points="200.636,456.111 177.843,443.711 177.892,417.37 200.685,429.769 				"/>
			</g>
			<g>
				<polygon fill="#565656" points="246.46,339.191 223.667,326.792 245.72,309.964 268.513,322.363 				"/>
			</g>
			<g>
				<polygon fill="#565656" points="268.513,322.363 245.72,309.964 245.765,285.74 268.559,298.139 				"/>
			</g>
			<g enable-background="new    ">
				<defs>
					<path id="SVGID_39_" enable-background="new    " d="M268.559,298.139l-22.793-12.399c6.765-3.552,13.764-6.559,20.8-8.933
						l22.793,12.399C282.322,291.58,275.324,294.587,268.559,298.139z"/>
				</defs>
				<clipPath id="SVGID_40_">
					<use xlink:href="#SVGID_39_"  overflow="visible"/>
				</clipPath>
				<g clip-path="url(#SVGID_40_)" enable-background="new    ">
					<path fill="#565656" d="M268.559,298.139l-22.793-12.399c1.867-0.98,3.752-1.919,5.65-2.814l22.793,12.399
						C272.31,296.22,270.425,297.159,268.559,298.139"/>
					<path fill="#565656" d="M274.209,295.325l-22.793-12.399c4.98-2.349,10.055-4.399,15.15-6.118l22.793,12.399
						C284.264,290.925,279.189,292.976,274.209,295.325"/>
				</g>
			</g>
			<g>
				<polygon fill="#ACACAC" points="246.462,338.083 223.669,325.684 244.834,309.538 267.627,321.937 				"/>
			</g>
			<g enable-background="new    ">
				<defs>
					<path id="SVGID_41_" enable-background="new    " d="M267.672,297.589l-22.793-12.399c7.293-3.861,14.546-6.973,21.839-9.407
						l22.793,12.399C282.218,290.616,274.965,293.728,267.672,297.589z"/>
				</defs>
				<clipPath id="SVGID_42_">
					<use xlink:href="#SVGID_41_"  overflow="visible"/>
				</clipPath>
				<g clip-path="url(#SVGID_42_)" enable-background="new    ">
					<path fill="#A3A3A3" d="M267.672,297.589l-22.793-12.399c2.118-1.122,4.232-2.179,6.345-3.176l22.793,12.399
						C271.904,295.41,269.79,296.468,267.672,297.589"/>
					<path fill="#A8A8A8" d="M274.018,294.414l-22.793-12.399c5.164-2.436,10.318-4.504,15.494-6.231l22.793,12.399
						C284.336,289.91,279.181,291.978,274.018,294.414"/>
				</g>
			</g>
			<g>
				<polygon fill="#828282" points="267.627,321.937 244.834,309.538 244.879,285.19 267.672,297.589 				"/>
			</g>
			<g>
				<polygon fill="#565656" points="210.217,393.334 187.424,380.935 200.188,355.372 222.981,367.771 				"/>
			</g>
			<g>
				<polygon fill="#969696" points="209.706,392.449 186.912,380.05 199.164,355.516 221.958,367.915 				"/>
			</g>
			<g>
				<polygon fill="#9F9F9F" points="182.163,419.709 159.37,407.311 178.789,416.69 201.582,429.089 				"/>
			</g>
			<g>
				<polygon fill="#565656" points="227.071,329.822 204.278,317.423 223.667,326.792 246.46,339.191 				"/>
			</g>
			<g>
				<polygon fill="#A0A0A0" points="226.738,328.917 203.945,316.518 223.669,325.684 246.462,338.083 				"/>
			</g>
			<g>
				<polygon fill="#565656" points="187.773,396.489 164.98,384.089 187.424,380.935 210.217,393.334 				"/>
			</g>
			<g enable-background="new    ">
				<defs>
					<path id="SVGID_43_" enable-background="new    " d="M182.163,419.709l-22.793-12.399c1.297-7.772,3.178-15.584,5.611-23.221
						l22.793,12.399C185.341,404.125,183.46,411.938,182.163,419.709z"/>
				</defs>
				<clipPath id="SVGID_44_">
					<use xlink:href="#SVGID_43_"  overflow="visible"/>
				</clipPath>
				<g clip-path="url(#SVGID_44_)" enable-background="new    ">
					<path fill="#565656" d="M182.163,419.709l-22.793-12.399c1.297-7.772,3.178-15.584,5.611-23.221l22.793,12.399
						C185.341,404.125,183.46,411.938,182.163,419.709"/>
				</g>
			</g>
			<g enable-background="new    ">
				<defs>
					<path id="SVGID_45_" enable-background="new    " d="M181.177,420.339l-22.793-12.399c1.377-8.386,3.331-16.476,5.858-24.385
						l22.793,12.399C184.507,403.863,182.554,411.954,181.177,420.339z"/>
				</defs>
				<clipPath id="SVGID_46_">
					<use xlink:href="#SVGID_45_"  overflow="visible"/>
				</clipPath>
				<g clip-path="url(#SVGID_46_)" enable-background="new    ">
					<path fill="#858585" d="M181.177,420.339l-22.793-12.399c1.377-8.386,3.331-16.476,5.858-24.385l22.793,12.399
						C184.507,403.863,182.554,411.954,181.177,420.339"/>
				</g>
			</g>
			<g>
				<polygon fill="#B4B4B4" points="187.035,395.954 164.242,383.555 186.912,380.05 209.706,392.449 				"/>
			</g>
			<g enable-background="new    ">
				<defs>
					<path id="SVGID_47_" enable-background="new    " d="M189.022,335.999c4.657-6.549,9.792-12.795,15.256-18.576l22.793,12.399
						c-0.017,0.018-0.034,0.036-0.051,0.054c-7.55-4.107-15.1-8.214-22.65-12.321c7.55,4.107,15.1,8.214,22.65,12.321
						c-5.445,5.766-10.563,11.993-15.205,18.522C204.978,344.679,195.86,339.719,189.022,335.999z"/>
				</defs>
				<clipPath id="SVGID_48_">
					<use xlink:href="#SVGID_47_"  overflow="visible"/>
				</clipPath>
				<g clip-path="url(#SVGID_48_)" enable-background="new    ">
					<path fill="#565656" d="M211.815,348.398l-22.793-12.399c3.527-4.961,7.33-9.749,11.341-14.291l22.793,12.399
						C219.145,338.65,215.343,343.437,211.815,348.398"/>
					<path fill="#565656" d="M223.157,334.107l-22.793-12.399c1.284-1.455,2.59-2.883,3.915-4.285l22.793,12.399
						C225.747,331.224,224.441,332.653,223.157,334.107"/>
				</g>
			</g>
			<g>
				<polygon fill="#565656" points="222.981,367.771 200.188,355.372 189.022,335.999 211.815,348.398 				"/>
			</g>
			<g>
				<path fill="#DFDFDF" d="M444.93,382.943l-19.506,15.242l-0.049,26.341l19.508,9.431c-1.368,8.387-3.33,16.476-5.858,24.385
					l-22.665,3.504l-12.249,24.533l11.222,19.471c-5.009,7.074-10.329,13.546-16.011,19.528l-19.715-9.166l-21.165,16.149
					l-0.046,24.344c-7.293,3.853-14.548,6.965-21.839,9.407l-11.545-19.397l-24.408,3.43l-11.317,22.662
					c-7.6-0.401-14.837-1.477-21.824-3.207l-0.25-24.417l-21.116-10.207l-19.528,14.898c-5.894-4.567-11.193-9.552-15.98-14.999
					l11.103-22.858l-12.167-21.102l-22.556,3.17c-2.613-7.506-4.538-15.048-5.829-22.733l19.498-15.24l0.049-26.342l-19.508-9.43
					c1.377-8.385,3.331-16.476,5.858-24.385l22.67-3.505l12.252-24.534l-11.225-19.47c5.012-7.084,10.332-13.552,16.005-19.528
					l19.724,9.166l21.165-16.146l0.045-24.348c7.293-3.861,14.545-6.973,21.839-9.407l11.542,19.393l24.408-3.431l11.319-22.666
					c7.59,0.403,14.829,1.478,21.824,3.21l0.25,24.426l21.116,10.204l19.528-14.898c5.894,4.566,11.193,9.551,15.98,14.99
					l-11.103,22.867l12.165,21.102l22.558-3.17C441.706,367.716,443.639,375.26,444.93,382.943z M443.896,434.588l-19.41-9.384
					l0.051-27.449l19.456-14.843c-1.262-7.413-3.122-14.696-5.52-21.657l-22.452,3.156l-12.67-21.989l11.246-22.523
					c-4.634-5.234-9.752-10.049-15.203-14.295l-19.425,14.821l-22.005-10.633l0.045-24.224c-6.762-1.651-13.744-2.693-20.775-3.089
					l-11.261,22.561l-25.432,3.574l-11.183-19.406c-7.037,2.374-14.035,5.38-20.8,8.933l-0.045,24.224l-22.053,16.825l-19.386-9.366
					c-5.467,5.781-10.603,12.027-15.259,18.577l11.166,19.373l-12.764,25.563l-22.444,3.154c-2.435,7.64-4.316,15.449-5.61,23.221
					l19.419,9.38l-0.051,27.449l-19.464,14.848c1.267,7.409,3.119,14.688,5.527,21.652l22.444-3.154l12.676,21.988l-11.244,22.517
					c4.635,5.243,9.75,10.055,15.198,14.302l19.43-14.821l22.002,10.624l-0.045,24.233c6.756,1.651,13.738,2.688,20.778,3.08
					l11.261-22.552l25.432-3.574l11.183,19.397c7.037-2.371,14.035-5.371,20.798-8.923l0.045-24.233l22.057-16.816l19.38,9.367
					c5.478-5.792,10.608-12.034,15.265-18.584l-11.169-19.366l12.759-25.563l22.452-3.155
					C440.719,450.161,442.607,442.357,443.896,434.588"/>
			</g>
			<g>
				<path fill="#565656" d="M443.993,382.912l-19.456,14.843l-0.051,27.449l19.41,9.384c-1.289,7.769-3.178,15.572-5.602,23.217
					l-22.452,3.155l-12.759,25.563l11.169,19.366c-4.656,6.55-9.787,12.792-15.265,18.584l-19.38-9.367l-21.83,16.646l-0.271,24.403
					c-6.763,3.552-13.761,6.552-20.798,8.923l-11.055-19.175l-25.56,3.352l-11.261,22.552c-7.04-0.393-14.022-1.429-20.778-3.08
					l0.045-24.233l-22.002-10.624l-19.433,14.822c-5.445-4.248-10.561-9.06-15.195-14.303l11.244-22.517l-12.676-21.988
					l-22.444,3.154c-2.405-6.966-4.258-14.244-5.527-21.652l19.241-14.678l0.274-27.619l-19.419-9.38
					c1.297-7.772,3.178-15.584,5.61-23.221l22.444-3.154l12.764-25.563l-11.166-19.373c4.656-6.549,9.792-12.795,15.256-18.576
					l19.389,9.369l22.053-16.828l0.045-24.224c6.765-3.552,13.764-6.559,20.8-8.933l11.183,19.406l25.432-3.574l11.261-22.561
					c7.031,0.396,14.014,1.438,20.775,3.089l-0.045,24.224l22.005,10.636l19.425-14.824c5.454,4.247,10.569,9.061,15.203,14.295
					l-11.246,22.523l12.542,21.766l22.58-2.933C440.871,368.213,442.731,375.5,443.993,382.912z M312.868,514.086
					c44.419-6.242,80.626-50.322,80.715-98.265c0.089-47.933-35.973-81.856-80.392-75.613c-44.41,6.241-80.618,50.321-80.707,98.255
					C232.396,486.406,268.458,520.329,312.868,514.086"/>
			</g>
			<g>
				<polygon fill="#808080" points="221.958,367.915 199.164,355.516 187.939,336.046 210.733,348.445 				"/>
			</g>
			<g enable-background="new    ">
				<defs>
					<path id="SVGID_49_" enable-background="new    " d="M210.733,348.445l-22.793-12.399c5.012-7.084,10.332-13.552,16.006-19.528
						l22.793,12.399C221.065,334.893,215.745,341.361,210.733,348.445z"/>
				</defs>
				<clipPath id="SVGID_50_">
					<use xlink:href="#SVGID_49_"  overflow="visible"/>
				</clipPath>
				<g clip-path="url(#SVGID_50_)" enable-background="new    ">
					<path fill="#949494" d="M210.733,348.445l-22.793-12.399c3.765-5.32,7.703-10.293,11.834-14.972l22.793,12.399
						C218.435,338.152,214.497,343.125,210.733,348.445"/>
					<path fill="#999999" d="M222.566,333.474l-22.793-12.399c1.369-1.55,2.759-3.068,4.172-4.556l22.793,12.399
						C225.326,330.405,223.936,331.923,222.566,333.474"/>
				</g>
			</g>
		</g>
	</g>
</g>
<text transform="matrix(1 0 0 1 422 677.8901)"><tspan x="0" y="0" font-family="'TimesNewRomanPSMT'" font-size="12">Laboratorul 4 </tspan><tspan x="0" y="14.4" font-family="'TimesNewRomanPSMT'" font-size="12">Apareci Aurica</tspan><tspan x="0" y="28.8" font-family="'TimesNewRomanPSMT'" font-size="12">AAW 2032</tspan></text>
</svg>
