<?xml version="1.0" encoding="utf-8"?>
<!-- Generator: Adobe Illustrator 16.0.2, SVG Export Plug-In . SVG Version: 6.00 Build 0)  -->
<!DOCTYPE svg PUBLIC "-//W3C//DTD SVG 1.1//EN" "http://www.w3.org/Graphics/SVG/1.1/DTD/svg11.dtd">
<svg version="1.1" id="Layer_1" xmlns="http://www.w3.org/2000/svg" xmlns:xlink="http://www.w3.org/1999/xlink" x="0px" y="0px"
	 width="612px" height="792px" viewBox="0 0 612 792" enable-background="new 0 0 612 792" xml:space="preserve">
<g opacity="0.2">
	<g enable-background="new    ">
		<g>
			<linearGradient id="SVGID_1_" gradientUnits="userSpaceOnUse" x1="213.042" y1="349.0811" x2="392.8721" y2="349.0811">
				<stop  offset="0" style="stop-color:#FFFFFF"/>
				<stop  offset="1" style="stop-color:#000000"/>
			</linearGradient>
			<linearGradient id="SVGID_2_" gradientUnits="userSpaceOnUse" x1="212.5327" y1="349.0811" x2="393.3809" y2="349.0811">
				<stop  offset="0" style="stop-color:#FFFFFF"/>
				<stop  offset="1" style="stop-color:#000000"/>
			</linearGradient>
			<polygon fill="url(#SVGID_1_)" stroke="url(#SVGID_2_)" stroke-miterlimit="10" points="392.872,299.695 392.297,342.954 
				213.042,398.467 213.617,355.208 			"/>
		</g>
		<g>
			<linearGradient id="SVGID_3_" gradientUnits="userSpaceOnUse" x1="213.042" y1="385.8091" x2="282.8184" y2="385.8091">
				<stop  offset="0" style="stop-color:#FFFFFF"/>
				<stop  offset="1" style="stop-color:#000000"/>
			</linearGradient>
			<linearGradient id="SVGID_4_" gradientUnits="userSpaceOnUse" x1="212.5366" y1="385.8086" x2="283.3237" y2="385.8086">
				<stop  offset="0" style="stop-color:#FFFFFF"/>
				<stop  offset="1" style="stop-color:#000000"/>
			</linearGradient>
			<polygon fill="url(#SVGID_3_)" stroke="url(#SVGID_4_)" stroke-miterlimit="10" points="282.818,373.151 282.243,416.41 
				213.042,398.467 213.617,355.208 			"/>
		</g>
		<g>
			<linearGradient id="SVGID_5_" gradientUnits="userSpaceOnUse" x1="211.0161" y1="385.9297" x2="281.4644" y2="385.9297">
				<stop  offset="0" style="stop-color:#FFFFFF"/>
				<stop  offset="1" style="stop-color:#000000"/>
			</linearGradient>
			<linearGradient id="SVGID_6_" gradientUnits="userSpaceOnUse" x1="210.5107" y1="385.9297" x2="281.9697" y2="385.9297">
				<stop  offset="0" style="stop-color:#FFFFFF"/>
				<stop  offset="1" style="stop-color:#000000"/>
			</linearGradient>
			<polygon fill="url(#SVGID_5_)" stroke="url(#SVGID_6_)" stroke-miterlimit="10" points="281.464,373.362 280.889,416.621 
				211.016,398.497 211.591,355.238 			"/>
		</g>
		<g>
			<linearGradient id="SVGID_7_" gradientUnits="userSpaceOnUse" x1="392.2969" y1="375.3706" x2="412.0996" y2="375.3706">
				<stop  offset="0" style="stop-color:#FFFFFF"/>
				<stop  offset="1" style="stop-color:#000000"/>
			</linearGradient>
			<linearGradient id="SVGID_8_" gradientUnits="userSpaceOnUse" x1="391.7959" y1="375.3711" x2="412.6006" y2="375.3711">
				<stop  offset="0" style="stop-color:#FFFFFF"/>
				<stop  offset="1" style="stop-color:#000000"/>
			</linearGradient>
			<polygon fill="url(#SVGID_7_)" stroke="url(#SVGID_8_)" stroke-miterlimit="10" points="412.1,407.787 411.523,451.046 
				392.297,342.954 392.872,299.695 			"/>
		</g>
		<g>
			<linearGradient id="SVGID_9_" gradientUnits="userSpaceOnUse" x1="348.0498" y1="420.6357" x2="412.0996" y2="420.6357">
				<stop  offset="0" style="stop-color:#FFFFFF"/>
				<stop  offset="1" style="stop-color:#000000"/>
			</linearGradient>
			<linearGradient id="SVGID_10_" gradientUnits="userSpaceOnUse" x1="347.5449" y1="420.6357" x2="412.6045" y2="420.6357">
				<stop  offset="0" style="stop-color:#FFFFFF"/>
				<stop  offset="1" style="stop-color:#000000"/>
			</linearGradient>
			<polygon fill="url(#SVGID_9_)" stroke="url(#SVGID_10_)" stroke-miterlimit="10" points="412.1,407.787 411.523,451.046 
				348.05,433.484 348.626,390.226 			"/>
		</g>
		<g>
			<linearGradient id="SVGID_11_" gradientUnits="userSpaceOnUse" x1="348.4648" y1="421.4219" x2="413.2549" y2="421.4219">
				<stop  offset="0" style="stop-color:#FFFFFF"/>
				<stop  offset="1" style="stop-color:#000000"/>
			</linearGradient>
			<linearGradient id="SVGID_12_" gradientUnits="userSpaceOnUse" x1="347.96" y1="421.4219" x2="413.7598" y2="421.4219">
				<stop  offset="0" style="stop-color:#FFFFFF"/>
				<stop  offset="1" style="stop-color:#000000"/>
			</linearGradient>
			<polygon fill="url(#SVGID_11_)" stroke="url(#SVGID_12_)" stroke-miterlimit="10" points="413.255,408.675 412.679,451.934 
				348.465,434.169 349.04,390.911 			"/>
		</g>
		<g>
			<linearGradient id="SVGID_13_" gradientUnits="userSpaceOnUse" x1="221.8896" y1="461.6191" x2="286.8438" y2="461.6191">
				<stop  offset="0" style="stop-color:#FFFFFF"/>
				<stop  offset="1" style="stop-color:#000000"/>
			</linearGradient>
			<linearGradient id="SVGID_14_" gradientUnits="userSpaceOnUse" x1="221.3843" y1="461.6191" x2="287.3491" y2="461.6191">
				<stop  offset="0" style="stop-color:#FFFFFF"/>
				<stop  offset="1" style="stop-color:#000000"/>
			</linearGradient>
			<polygon fill="url(#SVGID_13_)" stroke="url(#SVGID_14_)" stroke-miterlimit="10" points="286.844,448.614 286.268,491.873 
				221.89,474.623 222.465,431.364 			"/>
		</g>
		<g>
			<linearGradient id="SVGID_15_" gradientUnits="userSpaceOnUse" x1="221.8896" y1="423.8867" x2="282.8184" y2="423.8867">
				<stop  offset="0" style="stop-color:#FFFFFF"/>
				<stop  offset="1" style="stop-color:#000000"/>
			</linearGradient>
			<linearGradient id="SVGID_16_" gradientUnits="userSpaceOnUse" x1="221.3735" y1="423.8867" x2="283.3345" y2="423.8867">
				<stop  offset="0" style="stop-color:#FFFFFF"/>
				<stop  offset="1" style="stop-color:#000000"/>
			</linearGradient>
			<polygon fill="url(#SVGID_15_)" stroke="url(#SVGID_16_)" stroke-miterlimit="10" points="282.818,373.151 282.243,416.41 
				221.89,474.622 222.465,431.364 			"/>
		</g>
		<g>
			<linearGradient id="SVGID_17_" gradientUnits="userSpaceOnUse" x1="211.5913" y1="374.0649" x2="413.2549" y2="374.0649">
				<stop  offset="0" style="stop-color:#FFFFFF"/>
				<stop  offset="1" style="stop-color:#000000"/>
			</linearGradient>
			<linearGradient id="SVGID_18_" gradientUnits="userSpaceOnUse" x1="209.7456" y1="374.0205" x2="413.8857" y2="374.0205">
				<stop  offset="0" style="stop-color:#FFFFFF"/>
				<stop  offset="1" style="stop-color:#000000"/>
			</linearGradient>
			<path fill="url(#SVGID_17_)" stroke="url(#SVGID_18_)" stroke-miterlimit="10" d="M393.722,298.837l19.533,109.838
				l-64.215-17.764l-61.765,58.382l-66.155-17.727l60.345-58.205l-69.873-18.124l0.746-0.227L393.722,298.837z M348.625,390.226
				l63.475,17.561l-19.228-108.092l-179.255,55.512l69.201,17.944l-60.354,58.213l64.379,17.25L348.625,390.226"/>
		</g>
		<g>
			<linearGradient id="SVGID_19_" gradientUnits="userSpaceOnUse" x1="220.5439" y1="462.0586" x2="287.2749" y2="462.0586">
				<stop  offset="0" style="stop-color:#FFFFFF"/>
				<stop  offset="1" style="stop-color:#000000"/>
			</linearGradient>
			<linearGradient id="SVGID_20_" gradientUnits="userSpaceOnUse" x1="220.0386" y1="462.0586" x2="287.7803" y2="462.0586">
				<stop  offset="0" style="stop-color:#FFFFFF"/>
				<stop  offset="1" style="stop-color:#000000"/>
			</linearGradient>
			<polygon fill="url(#SVGID_19_)" stroke="url(#SVGID_20_)" stroke-miterlimit="10" points="287.275,449.293 286.699,492.552 
				220.544,474.825 221.12,431.566 			"/>
		</g>
		<g>
			<linearGradient id="SVGID_21_" gradientUnits="userSpaceOnUse" x1="286.2681" y1="441.0498" x2="348.626" y2="441.0498">
				<stop  offset="0" style="stop-color:#FFFFFF"/>
				<stop  offset="1" style="stop-color:#000000"/>
			</linearGradient>
			<linearGradient id="SVGID_22_" gradientUnits="userSpaceOnUse" x1="285.7524" y1="441.0498" x2="349.1416" y2="441.0498">
				<stop  offset="0" style="stop-color:#FFFFFF"/>
				<stop  offset="1" style="stop-color:#000000"/>
			</linearGradient>
			<polygon fill="url(#SVGID_21_)" stroke="url(#SVGID_22_)" stroke-miterlimit="10" points="348.626,390.226 348.05,433.484 
				286.268,491.873 286.844,448.614 			"/>
		</g>
		<g>
			<linearGradient id="SVGID_23_" gradientUnits="userSpaceOnUse" x1="213.6172" y1="374.1548" x2="412.0996" y2="374.1548">
				<stop  offset="0" style="stop-color:#FFFFFF"/>
				<stop  offset="1" style="stop-color:#000000"/>
			</linearGradient>
			<linearGradient id="SVGID_24_" gradientUnits="userSpaceOnUse" x1="211.7896" y1="374.1104" x2="412.7305" y2="374.1104">
				<stop  offset="0" style="stop-color:#FFFFFF"/>
				<stop  offset="1" style="stop-color:#000000"/>
			</linearGradient>
			<polygon fill="url(#SVGID_23_)" stroke="url(#SVGID_24_)" stroke-miterlimit="10" points="392.872,299.695 412.1,407.787 
				348.626,390.226 286.844,448.614 222.465,431.364 282.818,373.151 213.617,355.208 			"/>
		</g>
		<g>
			<linearGradient id="SVGID_25_" gradientUnits="userSpaceOnUse" x1="286.6992" y1="441.7314" x2="349.04" y2="441.7314">
				<stop  offset="0" style="stop-color:#FFFFFF"/>
				<stop  offset="1" style="stop-color:#000000"/>
			</linearGradient>
			<linearGradient id="SVGID_26_" gradientUnits="userSpaceOnUse" x1="286.1836" y1="441.7314" x2="349.5557" y2="441.7314">
				<stop  offset="0" style="stop-color:#FFFFFF"/>
				<stop  offset="1" style="stop-color:#000000"/>
			</linearGradient>
			<polygon fill="url(#SVGID_25_)" stroke="url(#SVGID_26_)" stroke-miterlimit="10" points="349.04,390.911 348.465,434.169 
				286.699,492.552 287.275,449.293 			"/>
		</g>
	</g>
</g>
<g>
	<g enable-background="new    ">
		<g>
			<linearGradient id="SVGID_27_" gradientUnits="userSpaceOnUse" x1="213.3291" y1="307.917" x2="393.1592" y2="307.917">
				<stop  offset="0" style="stop-color:#FFFFFF"/>
				<stop  offset="1" style="stop-color:#000000"/>
			</linearGradient>
			<linearGradient id="SVGID_28_" gradientUnits="userSpaceOnUse" x1="212.8198" y1="307.917" x2="393.668" y2="307.917">
				<stop  offset="0" style="stop-color:#FFFFFF"/>
				<stop  offset="0.9655" style="stop-color:#0D0D0D"/>
				<stop  offset="1" style="stop-color:#000000"/>
			</linearGradient>
			<polygon fill="url(#SVGID_27_)" stroke="url(#SVGID_28_)" stroke-miterlimit="10" points="393.159,258.531 392.583,301.79 
				213.329,357.303 213.904,314.043 			"/>
		</g>
		<g>
			<linearGradient id="SVGID_29_" gradientUnits="userSpaceOnUse" x1="213.3291" y1="344.645" x2="283.1055" y2="344.645">
				<stop  offset="0" style="stop-color:#FFFFFF"/>
				<stop  offset="1" style="stop-color:#000000"/>
			</linearGradient>
			<linearGradient id="SVGID_30_" gradientUnits="userSpaceOnUse" x1="212.8237" y1="344.645" x2="283.6108" y2="344.645">
				<stop  offset="0" style="stop-color:#FFFFFF"/>
				<stop  offset="0.9655" style="stop-color:#0D0D0D"/>
				<stop  offset="1" style="stop-color:#000000"/>
			</linearGradient>
			<polygon fill="url(#SVGID_29_)" stroke="url(#SVGID_30_)" stroke-miterlimit="10" points="283.105,331.987 282.53,375.246 
				213.329,357.303 213.904,314.044 			"/>
		</g>
		<g>
			<linearGradient id="SVGID_31_" gradientUnits="userSpaceOnUse" x1="211.3037" y1="344.7656" x2="281.751" y2="344.7656">
				<stop  offset="0" style="stop-color:#FFFFFF"/>
				<stop  offset="1" style="stop-color:#000000"/>
			</linearGradient>
			<linearGradient id="SVGID_32_" gradientUnits="userSpaceOnUse" x1="210.7983" y1="344.7656" x2="282.2563" y2="344.7656">
				<stop  offset="0" style="stop-color:#FFFFFF"/>
				<stop  offset="0.9655" style="stop-color:#0D0D0D"/>
				<stop  offset="1" style="stop-color:#000000"/>
			</linearGradient>
			<polygon fill="url(#SVGID_31_)" stroke="url(#SVGID_32_)" stroke-miterlimit="10" points="281.751,332.197 281.177,375.457 
				211.304,357.333 211.878,314.074 			"/>
		</g>
		<g>
			<linearGradient id="SVGID_33_" gradientUnits="userSpaceOnUse" x1="392.583" y1="334.2061" x2="412.3857" y2="334.2061">
				<stop  offset="0" style="stop-color:#FFFFFF"/>
				<stop  offset="1" style="stop-color:#000000"/>
			</linearGradient>
			<linearGradient id="SVGID_34_" gradientUnits="userSpaceOnUse" x1="392.082" y1="334.2061" x2="412.8867" y2="334.2061">
				<stop  offset="0" style="stop-color:#FFFFFF"/>
				<stop  offset="0.9655" style="stop-color:#0D0D0D"/>
				<stop  offset="1" style="stop-color:#000000"/>
			</linearGradient>
			<polygon fill="url(#SVGID_33_)" stroke="url(#SVGID_34_)" stroke-miterlimit="10" points="412.386,366.623 411.81,409.881 
				392.583,301.79 393.159,258.531 			"/>
		</g>
		<g>
			<linearGradient id="SVGID_35_" gradientUnits="userSpaceOnUse" x1="348.3369" y1="379.4717" x2="412.3857" y2="379.4717">
				<stop  offset="0" style="stop-color:#FFFFFF"/>
				<stop  offset="1" style="stop-color:#000000"/>
			</linearGradient>
			<linearGradient id="SVGID_36_" gradientUnits="userSpaceOnUse" x1="347.832" y1="379.4717" x2="412.8906" y2="379.4717">
				<stop  offset="0" style="stop-color:#FFFFFF"/>
				<stop  offset="0.9655" style="stop-color:#0D0D0D"/>
				<stop  offset="1" style="stop-color:#000000"/>
			</linearGradient>
			<polygon fill="url(#SVGID_35_)" stroke="url(#SVGID_36_)" stroke-miterlimit="10" points="412.386,366.623 411.81,409.881 
				348.337,392.32 348.913,349.063 			"/>
		</g>
		<g>
			<linearGradient id="SVGID_37_" gradientUnits="userSpaceOnUse" x1="348.751" y1="380.2578" x2="413.542" y2="380.2578">
				<stop  offset="0" style="stop-color:#FFFFFF"/>
				<stop  offset="1" style="stop-color:#000000"/>
			</linearGradient>
			<linearGradient id="SVGID_38_" gradientUnits="userSpaceOnUse" x1="348.2461" y1="380.2578" x2="414.0469" y2="380.2578">
				<stop  offset="0" style="stop-color:#FFFFFF"/>
				<stop  offset="0.9655" style="stop-color:#0D0D0D"/>
				<stop  offset="1" style="stop-color:#000000"/>
			</linearGradient>
			<polygon fill="url(#SVGID_37_)" stroke="url(#SVGID_38_)" stroke-miterlimit="10" points="413.542,367.51 412.966,410.77 
				348.751,393.004 349.327,349.746 			"/>
		</g>
		<g>
			<linearGradient id="SVGID_39_" gradientUnits="userSpaceOnUse" x1="222.1768" y1="420.4541" x2="287.1309" y2="420.4541">
				<stop  offset="0" style="stop-color:#FFFFFF"/>
				<stop  offset="1" style="stop-color:#000000"/>
			</linearGradient>
			<linearGradient id="SVGID_40_" gradientUnits="userSpaceOnUse" x1="221.6714" y1="420.4541" x2="287.6362" y2="420.4541">
				<stop  offset="0" style="stop-color:#FFFFFF"/>
				<stop  offset="0.9655" style="stop-color:#0D0D0D"/>
				<stop  offset="1" style="stop-color:#000000"/>
			</linearGradient>
			<polygon fill="url(#SVGID_39_)" stroke="url(#SVGID_40_)" stroke-miterlimit="10" points="287.131,407.449 286.556,450.709 
				222.177,433.459 222.753,390.199 			"/>
		</g>
		<g>
			<linearGradient id="SVGID_41_" gradientUnits="userSpaceOnUse" x1="222.1768" y1="382.7222" x2="283.1055" y2="382.7222">
				<stop  offset="0" style="stop-color:#FFFFFF"/>
				<stop  offset="1" style="stop-color:#000000"/>
			</linearGradient>
			<linearGradient id="SVGID_42_" gradientUnits="userSpaceOnUse" x1="221.6606" y1="382.7222" x2="283.6216" y2="382.7222">
				<stop  offset="0" style="stop-color:#FFFFFF"/>
				<stop  offset="0.9655" style="stop-color:#0D0D0D"/>
				<stop  offset="1" style="stop-color:#000000"/>
			</linearGradient>
			<polygon fill="url(#SVGID_41_)" stroke="url(#SVGID_42_)" stroke-miterlimit="10" points="283.105,331.987 282.53,375.246 
				222.177,433.457 222.752,390.199 			"/>
		</g>
		<g>
			<linearGradient id="SVGID_43_" gradientUnits="userSpaceOnUse" x1="211.8779" y1="332.9009" x2="413.542" y2="332.9009">
				<stop  offset="0" style="stop-color:#FFFFFF"/>
				<stop  offset="1" style="stop-color:#000000"/>
			</linearGradient>
			<linearGradient id="SVGID_44_" gradientUnits="userSpaceOnUse" x1="210.0322" y1="332.8564" x2="414.1729" y2="332.8564">
				<stop  offset="0" style="stop-color:#FFFFFF"/>
				<stop  offset="0.9655" style="stop-color:#0D0D0D"/>
				<stop  offset="1" style="stop-color:#000000"/>
			</linearGradient>
			<path fill="url(#SVGID_43_)" stroke="url(#SVGID_44_)" stroke-miterlimit="10" d="M394.009,257.673l19.533,109.837
				l-64.215-17.764l-61.766,58.383l-66.154-17.727l60.344-58.205l-69.873-18.123l0.746-0.227L394.009,257.673z M348.911,349.063
				l63.475,17.561l-19.227-108.092l-179.255,55.512l69.201,17.944l-60.354,58.212l64.379,17.25L348.911,349.063"/>
		</g>
		<g>
			<linearGradient id="SVGID_45_" gradientUnits="userSpaceOnUse" x1="220.8311" y1="420.8945" x2="287.5615" y2="420.8945">
				<stop  offset="0" style="stop-color:#FFFFFF"/>
				<stop  offset="1" style="stop-color:#000000"/>
			</linearGradient>
			<linearGradient id="SVGID_46_" gradientUnits="userSpaceOnUse" x1="220.3257" y1="420.8945" x2="288.0669" y2="420.8945">
				<stop  offset="0" style="stop-color:#FFFFFF"/>
				<stop  offset="0.9655" style="stop-color:#0D0D0D"/>
				<stop  offset="1" style="stop-color:#000000"/>
			</linearGradient>
			<polygon fill="url(#SVGID_45_)" stroke="url(#SVGID_46_)" stroke-miterlimit="10" points="287.562,408.129 286.986,451.387 
				220.831,433.66 221.407,390.402 			"/>
		</g>
		<g>
			<linearGradient id="SVGID_47_" gradientUnits="userSpaceOnUse" x1="286.5557" y1="399.8857" x2="348.9131" y2="399.8857">
				<stop  offset="0" style="stop-color:#FFFFFF"/>
				<stop  offset="1" style="stop-color:#000000"/>
			</linearGradient>
			<linearGradient id="SVGID_48_" gradientUnits="userSpaceOnUse" x1="286.04" y1="399.8857" x2="349.4287" y2="399.8857">
				<stop  offset="0" style="stop-color:#FFFFFF"/>
				<stop  offset="0.9655" style="stop-color:#0D0D0D"/>
				<stop  offset="1" style="stop-color:#000000"/>
			</linearGradient>
			<polygon fill="url(#SVGID_47_)" stroke="url(#SVGID_48_)" stroke-miterlimit="10" points="348.913,349.063 348.337,392.32 
				286.556,450.709 287.131,407.449 			"/>
		</g>
		<g>
			<linearGradient id="SVGID_49_" gradientUnits="userSpaceOnUse" x1="213.9043" y1="332.9902" x2="412.3857" y2="332.9902">
				<stop  offset="0" style="stop-color:#FFFFFF"/>
				<stop  offset="1" style="stop-color:#000000"/>
			</linearGradient>
			<linearGradient id="SVGID_50_" gradientUnits="userSpaceOnUse" x1="212.0767" y1="332.9453" x2="413.0166" y2="332.9453">
				<stop  offset="0" style="stop-color:#FFFFFF"/>
				<stop  offset="0.9655" style="stop-color:#0D0D0D"/>
				<stop  offset="1" style="stop-color:#000000"/>
			</linearGradient>
			<polygon fill="url(#SVGID_49_)" stroke="url(#SVGID_50_)" stroke-miterlimit="10" points="393.159,258.531 412.386,366.623 
				348.913,349.063 287.131,407.449 222.753,390.199 283.105,331.987 213.904,314.044 			"/>
		</g>
		<g>
			<linearGradient id="SVGID_51_" gradientUnits="userSpaceOnUse" x1="286.9863" y1="400.5664" x2="349.3271" y2="400.5664">
				<stop  offset="0" style="stop-color:#FFFFFF"/>
				<stop  offset="1" style="stop-color:#000000"/>
			</linearGradient>
			<linearGradient id="SVGID_52_" gradientUnits="userSpaceOnUse" x1="286.4707" y1="400.5664" x2="349.8428" y2="400.5664">
				<stop  offset="0" style="stop-color:#FFFFFF"/>
				<stop  offset="0.9655" style="stop-color:#0D0D0D"/>
				<stop  offset="1" style="stop-color:#000000"/>
			</linearGradient>
			<polygon fill="url(#SVGID_51_)" stroke="url(#SVGID_52_)" stroke-miterlimit="10" points="349.327,349.746 348.751,393.004 
				286.986,451.387 287.562,408.129 			"/>
		</g>
	</g>
</g>
<text transform="matrix(1 0 0 1 505.4023 744.2979)"><tspan x="0" y="0" font-family="'MyriadPro-Regular'" font-size="12">Laboratorul nr 1 </tspan><tspan x="0" y="14.4" font-family="'MyriadPro-Regular'" font-size="12">Apareci Aurica </tspan><tspan x="0" y="28.8" font-family="'MyriadPro-Regular'" font-size="12">AAW 2032</tspan></text>
</svg>
