<?xml version="1.0" encoding="utf-8"?>
<!-- Generator: Adobe Illustrator 16.0.2, SVG Export Plug-In . SVG Version: 6.00 Build 0)  -->
<!DOCTYPE svg PUBLIC "-//W3C//DTD SVG 1.1//EN" "http://www.w3.org/Graphics/SVG/1.1/DTD/svg11.dtd">
<svg version="1.1" id="Layer_1" xmlns="http://www.w3.org/2000/svg" xmlns:xlink="http://www.w3.org/1999/xlink" x="0px" y="0px"
	 width="1920px" height="1080px" viewBox="0 0 1920 1080" enable-background="new 0 0 1920 1080" xml:space="preserve">
<g>
	<defs>
		<rect id="SVGID_1_" width="1920" height="1080"/>
	</defs>
	<clipPath id="SVGID_2_">
		<use xlink:href="#SVGID_1_"  overflow="visible"/>
	</clipPath>
	<path clip-path="url(#SVGID_2_)" d="M572.581,363.706c0-27.372,22.189-49.562,49.562-49.562c27.372,0,49.561-22.188,49.561-49.561
		c0-27.372-22.189-49.561-49.561-49.561c-27.373,0-49.562,22.189-49.562,49.561v-3.623c0,27.372-22.189,49.562-49.562,49.562
		c-27.371,0-49.561,22.189-49.561,49.561c0,27.373,22.19,49.561,49.561,49.561c27.373,0,49.562-22.188,49.562-49.561"/>
	<path clip-path="url(#SVGID_2_)" fill="none" stroke="#000000" stroke-miterlimit="10" d="M572.581,363.706
		c0-27.372,22.189-49.562,49.562-49.562c27.372,0,49.561-22.188,49.561-49.561c0-27.372-22.189-49.561-49.561-49.561
		c-27.373,0-49.562,22.189-49.562,49.561v-3.623c0,27.372-22.189,49.562-49.562,49.562c-27.371,0-49.561,22.189-49.561,49.561
		c0,27.373,22.19,49.561,49.561,49.561c27.373,0,49.562-22.188,49.562-49.561"/>
	<path clip-path="url(#SVGID_2_)" d="M671.704,365.893c0,24.164-19.589,43.752-43.752,43.752c-24.164,0-43.752-19.588-43.752-43.752
		s19.588-43.752,43.752-43.752C652.115,322.141,671.704,341.729,671.704,365.893"/>
	
		<circle clip-path="url(#SVGID_2_)" fill="none" stroke="#000000" stroke-width="1.11" stroke-miterlimit="10" cx="627.952" cy="365.893" r="43.752"/>
	<path clip-path="url(#SVGID_2_)" fill="#FFFFFF" d="M683.322,470.825c0-27.372,22.189-49.562,49.562-49.562
		c27.372,0,49.561-22.189,49.561-49.561s-22.189-49.562-49.561-49.562c-27.373,0-49.562,22.19-49.562,49.562v-3.623
		c0,27.372-22.189,49.561-49.562,49.561c-27.371,0-49.561,22.19-49.561,49.562s22.19,49.561,49.561,49.561
		c27.373,0,49.562-22.189,49.562-49.561"/>
	<path clip-path="url(#SVGID_2_)" fill="none" stroke="#000000" stroke-miterlimit="10" d="M683.322,470.825
		c0-27.372,22.189-49.562,49.562-49.562c27.372,0,49.561-22.189,49.561-49.561s-22.189-49.562-49.561-49.562
		c-27.373,0-49.562,22.19-49.562,49.562v-3.623c0,27.372-22.189,49.561-49.562,49.561c-27.371,0-49.561,22.19-49.561,49.562
		s22.19,49.561,49.561,49.561c27.373,0,49.562-22.189,49.562-49.561"/>
	<path clip-path="url(#SVGID_2_)" fill="#FFFFFF" d="M782.445,473.011c0,24.164-19.589,43.752-43.752,43.752
		c-24.164,0-43.752-19.588-43.752-43.752s19.588-43.752,43.752-43.752C762.856,429.259,782.445,448.847,782.445,473.011"/>
	
		<circle clip-path="url(#SVGID_2_)" fill="none" stroke="#000000" stroke-width="1.11" stroke-miterlimit="10" cx="738.693" cy="473.011" r="43.752"/>
</g>
<text transform="matrix(1 0 0 1 853 649)"><tspan x="0" y="0" font-family="'TimesNewRomanPSMT'" font-size="12">Laboratorul 5 </tspan><tspan x="0" y="14.4" font-family="'TimesNewRomanPSMT'" font-size="12">Apareci Aurica </tspan><tspan x="0" y="28.8" font-family="'TimesNewRomanPSMT'" font-size="12">AAW 2032</tspan></text>
</svg>
